<?xml version="1.0" encoding="UTF-8" standalone="no"?>
<!DOCTYPE svg PUBLIC "-//W3C//DTD SVG 1.1//EN"
 "http://www.w3.org/Graphics/SVG/1.1/DTD/svg11.dtd">
<!-- Generated by graphviz version 2.44.1 (20200629.0846)
 -->
<!-- Title: snakemake_dag Pages: 1 -->
<svg width="762pt" height="404pt"
 viewBox="0.00 0.00 762.20 404.00" xmlns="http://www.w3.org/2000/svg" xmlns:xlink="http://www.w3.org/1999/xlink">
<g id="graph0" class="graph" transform="scale(1 1) rotate(0) translate(4 400)">
<title>snakemake_dag</title>
<polygon fill="white" stroke="transparent" points="-4,4 -4,-400 758.2,-400 758.2,4 -4,4"/>
<!-- 0 -->
<g id="node1" class="node">
<title>0</title>
<path fill="none" stroke="#56d8d8" stroke-width="2" d="M231.31,-36C231.31,-36 201.31,-36 201.31,-36 195.31,-36 189.31,-30 189.31,-24 189.31,-24 189.31,-12 189.31,-12 189.31,-6 195.31,0 201.31,0 201.31,0 231.31,0 231.31,0 237.31,0 243.31,-6 243.31,-12 243.31,-12 243.31,-24 243.31,-24 243.31,-30 237.31,-36 231.31,-36"/>
<text text-anchor="middle" x="216.31" y="-15" font-family="sans" font-size="10.00">all</text>
</g>
<!-- 1 -->
<g id="node2" class="node">
<title>1</title>
<path fill="none" stroke="#d8b456" stroke-width="2" d="M168.68,-108C168.68,-108 87.95,-108 87.95,-108 81.95,-108 75.95,-102 75.95,-96 75.95,-96 75.95,-84 75.95,-84 75.95,-78 81.95,-72 87.95,-72 87.95,-72 168.68,-72 168.68,-72 174.68,-72 180.68,-78 180.68,-84 180.68,-84 180.68,-96 180.68,-96 180.68,-102 174.68,-108 168.68,-108"/>
<text text-anchor="middle" x="128.31" y="-87" font-family="sans" font-size="10.00">figure_networks_html</text>
</g>
<!-- 1&#45;&gt;0 -->
<g id="edge1" class="edge">
<title>1&#45;&gt;0</title>
<path fill="none" stroke="grey" stroke-width="2" d="M150.07,-71.7C161.15,-62.88 174.79,-52.03 186.8,-42.47"/>
<polygon fill="grey" stroke="grey" stroke-width="2" points="189.16,-45.07 194.81,-36.1 184.81,-39.59 189.16,-45.07"/>
</g>
<!-- 2 -->
<g id="node3" class="node">
<title>2</title>
<path fill="none" stroke="#56d8b9" stroke-width="2" d="M148.85,-180C148.85,-180 91.78,-180 91.78,-180 85.78,-180 79.78,-174 79.78,-168 79.78,-168 79.78,-156 79.78,-156 79.78,-150 85.78,-144 91.78,-144 91.78,-144 148.85,-144 148.85,-144 154.85,-144 160.85,-150 160.85,-156 160.85,-156 160.85,-168 160.85,-168 160.85,-174 154.85,-180 148.85,-180"/>
<text text-anchor="middle" x="120.31" y="-159" font-family="sans" font-size="10.00">figure_networks</text>
</g>
<!-- 2&#45;&gt;1 -->
<g id="edge4" class="edge">
<title>2&#45;&gt;1</title>
<path fill="none" stroke="grey" stroke-width="2" d="M122.29,-143.7C123.17,-135.98 124.23,-126.71 125.22,-118.11"/>
<polygon fill="grey" stroke="grey" stroke-width="2" points="128.7,-118.44 126.36,-108.1 121.75,-117.64 128.7,-118.44"/>
</g>
<!-- 3 -->
<g id="node4" class="node">
<title>3</title>
<path fill="none" stroke="#b6d856" stroke-width="2" d="M409.83,-324C409.83,-324 342.8,-324 342.8,-324 336.8,-324 330.8,-318 330.8,-312 330.8,-312 330.8,-300 330.8,-300 330.8,-294 336.8,-288 342.8,-288 342.8,-288 409.83,-288 409.83,-288 415.83,-288 421.83,-294 421.83,-300 421.83,-300 421.83,-312 421.83,-312 421.83,-318 415.83,-324 409.83,-324"/>
<text text-anchor="middle" x="376.31" y="-303" font-family="sans" font-size="10.00">create_enm_object</text>
</g>
<!-- 3&#45;&gt;2 -->
<g id="edge5" class="edge">
<title>3&#45;&gt;2</title>
<path fill="none" stroke="grey" stroke-width="2" d="M330.62,-304.06C284.58,-300.88 213.75,-289.62 166.31,-252 146.59,-236.35 134.46,-209.94 127.65,-189.95"/>
<polygon fill="grey" stroke="grey" stroke-width="2" points="130.91,-188.64 124.56,-180.16 124.23,-190.75 130.91,-188.64"/>
</g>
<!-- 5 -->
<g id="node6" class="node">
<title>5</title>
<path fill="none" stroke="#d87556" stroke-width="2" d="M80.44,-252C80.44,-252 12.18,-252 12.18,-252 6.18,-252 0.18,-246 0.18,-240 0.18,-240 0.18,-228 0.18,-228 0.18,-222 6.18,-216 12.18,-216 12.18,-216 80.44,-216 80.44,-216 86.44,-216 92.44,-222 92.44,-228 92.44,-228 92.44,-240 92.44,-240 92.44,-246 86.44,-252 80.44,-252"/>
<text text-anchor="middle" x="46.31" y="-231" font-family="sans" font-size="10.00">effector_sensor_go</text>
</g>
<!-- 3&#45;&gt;5 -->
<g id="edge8" class="edge">
<title>3&#45;&gt;5</title>
<path fill="none" stroke="grey" stroke-width="2" d="M330.68,-297.23C276.8,-287.77 184.59,-270.74 106.31,-252 105.07,-251.7 103.81,-251.4 102.55,-251.08"/>
<polygon fill="grey" stroke="grey" stroke-width="2" points="103.29,-247.66 92.73,-248.56 101.54,-254.44 103.29,-247.66"/>
</g>
<!-- 6 -->
<g id="node7" class="node">
<title>6</title>
<path fill="none" stroke="#56d87b" stroke-width="2" d="M231.31,-180C231.31,-180 201.31,-180 201.31,-180 195.31,-180 189.31,-174 189.31,-168 189.31,-168 189.31,-156 189.31,-156 189.31,-150 195.31,-144 201.31,-144 201.31,-144 231.31,-144 231.31,-144 237.31,-144 243.31,-150 243.31,-156 243.31,-156 243.31,-168 243.31,-168 243.31,-174 237.31,-180 231.31,-180"/>
<text text-anchor="middle" x="216.31" y="-159" font-family="sans" font-size="10.00">figure2</text>
</g>
<!-- 3&#45;&gt;6 -->
<g id="edge10" class="edge">
<title>3&#45;&gt;6</title>
<path fill="none" stroke="grey" stroke-width="2" d="M330.76,-299.3C277.99,-291.65 195.89,-276.17 177.31,-252 162.38,-232.57 176.95,-206.54 192.35,-187.65"/>
<polygon fill="grey" stroke="grey" stroke-width="2" points="195.04,-189.89 198.92,-180.03 189.74,-185.32 195.04,-189.89"/>
</g>
<!-- 7 -->
<g id="node8" class="node">
<title>7</title>
<path fill="none" stroke="#78d856" stroke-width="2" d="M254.12,-252C254.12,-252 198.51,-252 198.51,-252 192.51,-252 186.51,-246 186.51,-240 186.51,-240 186.51,-228 186.51,-228 186.51,-222 192.51,-216 198.51,-216 198.51,-216 254.12,-216 254.12,-216 260.12,-216 266.12,-222 266.12,-228 266.12,-228 266.12,-240 266.12,-240 266.12,-246 260.12,-252 254.12,-252"/>
<text text-anchor="middle" x="226.31" y="-231" font-family="sans" font-size="10.00">rewire_network</text>
</g>
<!-- 3&#45;&gt;7 -->
<g id="edge12" class="edge">
<title>3&#45;&gt;7</title>
<path fill="none" stroke="grey" stroke-width="2" d="M339.62,-287.88C319.3,-278.39 293.84,-266.51 272.21,-256.42"/>
<polygon fill="grey" stroke="grey" stroke-width="2" points="273.43,-253.13 262.89,-252.07 270.47,-259.47 273.43,-253.13"/>
</g>
<!-- 8 -->
<g id="node9" class="node">
<title>8</title>
<path fill="none" stroke="#56d89a" stroke-width="2" d="M447.69,-180C447.69,-180 406.94,-180 406.94,-180 400.94,-180 394.94,-174 394.94,-168 394.94,-168 394.94,-156 394.94,-156 394.94,-150 400.94,-144 406.94,-144 406.94,-144 447.69,-144 447.69,-144 453.69,-144 459.69,-150 459.69,-156 459.69,-156 459.69,-168 459.69,-168 459.69,-174 453.69,-180 447.69,-180"/>
<text text-anchor="middle" x="427.31" y="-159" font-family="sans" font-size="10.00">figure3_4_5</text>
</g>
<!-- 3&#45;&gt;8 -->
<g id="edge13" class="edge">
<title>3&#45;&gt;8</title>
<path fill="none" stroke="grey" stroke-width="2" d="M346.01,-287.8C333.44,-278.9 320.19,-266.77 313.31,-252 306.56,-237.49 304.71,-229.49 313.31,-216 329.01,-191.39 359.42,-178.03 384.89,-170.88"/>
<polygon fill="grey" stroke="grey" stroke-width="2" points="385.91,-174.23 394.72,-168.35 384.17,-167.45 385.91,-174.23"/>
</g>
<!-- 9 -->
<g id="node10" class="node">
<title>9</title>
<path fill="none" stroke="#59d856" stroke-width="2" d="M418.52,-252C418.52,-252 334.11,-252 334.11,-252 328.11,-252 322.11,-246 322.11,-240 322.11,-240 322.11,-228 322.11,-228 322.11,-222 328.11,-216 334.11,-216 334.11,-216 418.52,-216 418.52,-216 424.52,-216 430.52,-222 430.52,-228 430.52,-228 430.52,-240 430.52,-240 430.52,-246 424.52,-252 418.52,-252"/>
<text text-anchor="middle" x="376.31" y="-231" font-family="sans" font-size="10.00">sensor_in_to_out_ratio</text>
</g>
<!-- 3&#45;&gt;9 -->
<g id="edge20" class="edge">
<title>3&#45;&gt;9</title>
<path fill="none" stroke="grey" stroke-width="2" d="M376.31,-287.7C376.31,-279.98 376.31,-270.71 376.31,-262.11"/>
<polygon fill="grey" stroke="grey" stroke-width="2" points="379.81,-262.1 376.31,-252.1 372.81,-262.1 379.81,-262.1"/>
</g>
<!-- 10 -->
<g id="node11" class="node">
<title>10</title>
<path fill="none" stroke="#569ad8" stroke-width="2" d="M498.41,-252C498.41,-252 460.22,-252 460.22,-252 454.22,-252 448.22,-246 448.22,-240 448.22,-240 448.22,-228 448.22,-228 448.22,-222 454.22,-216 460.22,-216 460.22,-216 498.41,-216 498.41,-216 504.41,-216 510.41,-222 510.41,-228 510.41,-228 510.41,-240 510.41,-240 510.41,-246 504.41,-252 498.41,-252"/>
<text text-anchor="middle" x="479.31" y="-231" font-family="sans" font-size="10.00">rwr_col_go</text>
</g>
<!-- 3&#45;&gt;10 -->
<g id="edge21" class="edge">
<title>3&#45;&gt;10</title>
<path fill="none" stroke="grey" stroke-width="2" d="M401.51,-287.88C414.73,-278.89 431.11,-267.76 445.42,-258.03"/>
<polygon fill="grey" stroke="grey" stroke-width="2" points="447.72,-260.71 454.02,-252.19 443.78,-254.92 447.72,-260.71"/>
</g>
<!-- 11 -->
<g id="node12" class="node">
<title>11</title>
<path fill="none" stroke="#d89556" stroke-width="2" d="M576.75,-252C576.75,-252 539.88,-252 539.88,-252 533.88,-252 527.88,-246 527.88,-240 527.88,-240 527.88,-228 527.88,-228 527.88,-222 533.88,-216 539.88,-216 539.88,-216 576.75,-216 576.75,-216 582.75,-216 588.75,-222 588.75,-228 588.75,-228 588.75,-240 588.75,-240 588.75,-246 582.75,-252 576.75,-252"/>
<text text-anchor="middle" x="558.31" y="-231" font-family="sans" font-size="10.00">prs_col_go</text>
</g>
<!-- 3&#45;&gt;11 -->
<g id="edge23" class="edge">
<title>3&#45;&gt;11</title>
<path fill="none" stroke="grey" stroke-width="2" d="M421.97,-288.82C447.97,-279.44 481.32,-267.12 518.26,-252.34"/>
<polygon fill="grey" stroke="grey" stroke-width="2" points="519.76,-255.51 527.73,-248.53 517.14,-249.01 519.76,-255.51"/>
</g>
<!-- 12 -->
<g id="node13" class="node">
<title>12</title>
<path fill="none" stroke="#d85656" stroke-width="2" d="M660.24,-252C660.24,-252 618.39,-252 618.39,-252 612.39,-252 606.39,-246 606.39,-240 606.39,-240 606.39,-228 606.39,-228 606.39,-222 612.39,-216 618.39,-216 618.39,-216 660.24,-216 660.24,-216 666.24,-216 672.24,-222 672.24,-228 672.24,-228 672.24,-240 672.24,-240 672.24,-246 666.24,-252 660.24,-252"/>
<text text-anchor="middle" x="639.31" y="-231" font-family="sans" font-size="10.00">rwr_row_go</text>
</g>
<!-- 3&#45;&gt;12 -->
<g id="edge25" class="edge">
<title>3&#45;&gt;12</title>
<path fill="none" stroke="grey" stroke-width="2" d="M422.15,-296.09C465.12,-287.28 531.2,-272.54 596.8,-251.92"/>
<polygon fill="grey" stroke="grey" stroke-width="2" points="598.01,-255.21 606.47,-248.83 595.88,-248.54 598.01,-255.21"/>
</g>
<!-- 13 -->
<g id="node14" class="node">
<title>13</title>
<path fill="none" stroke="#d6d856" stroke-width="2" d="M742.08,-252C742.08,-252 702.55,-252 702.55,-252 696.55,-252 690.55,-246 690.55,-240 690.55,-240 690.55,-228 690.55,-228 690.55,-222 696.55,-216 702.55,-216 702.55,-216 742.08,-216 742.08,-216 748.08,-216 754.08,-222 754.08,-228 754.08,-228 754.08,-240 754.08,-240 754.08,-246 748.08,-252 742.08,-252"/>
<text text-anchor="middle" x="722.31" y="-231" font-family="sans" font-size="10.00">prs_row_go</text>
</g>
<!-- 3&#45;&gt;13 -->
<g id="edge27" class="edge">
<title>3&#45;&gt;13</title>
<path fill="none" stroke="grey" stroke-width="2" d="M421.98,-300.26C480.25,-293.51 584.06,-279.14 680.43,-251.9"/>
<polygon fill="grey" stroke="grey" stroke-width="2" points="681.69,-255.18 690.33,-249.05 679.75,-248.45 681.69,-255.18"/>
</g>
<!-- 4 -->
<g id="node5" class="node">
<title>4</title>
<path fill="none" stroke="#97d856" stroke-width="2" d="M543.66,-396C543.66,-396 472.97,-396 472.97,-396 466.97,-396 460.97,-390 460.97,-384 460.97,-384 460.97,-372 460.97,-372 460.97,-366 466.97,-360 472.97,-360 472.97,-360 543.66,-360 543.66,-360 549.66,-360 555.66,-366 555.66,-372 555.66,-372 555.66,-384 555.66,-384 555.66,-390 549.66,-396 543.66,-396"/>
<text text-anchor="middle" x="508.31" y="-375" font-family="sans" font-size="10.00">read_costanzo_data</text>
</g>
<!-- 4&#45;&gt;3 -->
<g id="edge7" class="edge">
<title>4&#45;&gt;3</title>
<path fill="none" stroke="grey" stroke-width="2" d="M476.02,-359.88C458.45,-350.55 436.51,-338.92 417.69,-328.94"/>
<polygon fill="grey" stroke="grey" stroke-width="2" points="419.2,-325.78 408.73,-324.19 415.92,-331.97 419.2,-325.78"/>
</g>
<!-- 4&#45;&gt;5 -->
<g id="edge9" class="edge">
<title>4&#45;&gt;5</title>
<path fill="none" stroke="grey" stroke-width="2" d="M460.91,-364.08C423.02,-353.64 368.62,-338.35 321.31,-324 245.21,-300.91 157.94,-272.3 102.5,-253.85"/>
<polygon fill="grey" stroke="grey" stroke-width="2" points="103.46,-250.48 92.86,-250.64 101.24,-257.12 103.46,-250.48"/>
</g>
<!-- 4&#45;&gt;10 -->
<g id="edge22" class="edge">
<title>4&#45;&gt;10</title>
<path fill="none" stroke="grey" stroke-width="2" d="M504.82,-359.87C499.85,-335.56 490.71,-290.82 484.83,-262.01"/>
<polygon fill="grey" stroke="grey" stroke-width="2" points="488.26,-261.29 482.82,-252.19 481.4,-262.69 488.26,-261.29"/>
</g>
<!-- 4&#45;&gt;11 -->
<g id="edge24" class="edge">
<title>4&#45;&gt;11</title>
<path fill="none" stroke="grey" stroke-width="2" d="M514.35,-359.87C522.94,-335.46 538.8,-290.43 548.94,-261.64"/>
<polygon fill="grey" stroke="grey" stroke-width="2" points="552.24,-262.78 552.26,-252.19 545.64,-260.46 552.24,-262.78"/>
</g>
<!-- 4&#45;&gt;12 -->
<g id="edge26" class="edge">
<title>4&#45;&gt;12</title>
<path fill="none" stroke="grey" stroke-width="2" d="M524.12,-359.87C547.13,-334.92 590.01,-288.45 616.46,-259.77"/>
<polygon fill="grey" stroke="grey" stroke-width="2" points="619.25,-261.91 623.46,-252.19 614.1,-257.17 619.25,-261.91"/>
</g>
<!-- 4&#45;&gt;13 -->
<g id="edge28" class="edge">
<title>4&#45;&gt;13</title>
<path fill="none" stroke="grey" stroke-width="2" d="M534.13,-359.87C572.61,-334.34 645.07,-286.25 687.98,-257.78"/>
<polygon fill="grey" stroke="grey" stroke-width="2" points="690.01,-260.63 696.41,-252.19 686.14,-254.8 690.01,-260.63"/>
</g>
<!-- 5&#45;&gt;2 -->
<g id="edge6" class="edge">
<title>5&#45;&gt;2</title>
<path fill="none" stroke="grey" stroke-width="2" d="M64.61,-215.7C73.75,-207.05 84.95,-196.45 94.91,-187.03"/>
<polygon fill="grey" stroke="grey" stroke-width="2" points="97.37,-189.52 102.23,-180.1 92.56,-184.43 97.37,-189.52"/>
</g>
<!-- 5&#45;&gt;8 -->
<g id="edge15" class="edge">
<title>5&#45;&gt;8</title>
<path fill="none" stroke="grey" stroke-width="2" d="M92.65,-224.49C167.22,-210.79 312.76,-184.05 384.81,-170.81"/>
<polygon fill="grey" stroke="grey" stroke-width="2" points="385.69,-174.21 394.89,-168.96 384.42,-167.32 385.69,-174.21"/>
</g>
<!-- 6&#45;&gt;0 -->
<g id="edge2" class="edge">
<title>6&#45;&gt;0</title>
<path fill="none" stroke="grey" stroke-width="2" d="M216.31,-143.87C216.31,-119.67 216.31,-75.21 216.31,-46.39"/>
<polygon fill="grey" stroke="grey" stroke-width="2" points="219.81,-46.19 216.31,-36.19 212.81,-46.19 219.81,-46.19"/>
</g>
<!-- 7&#45;&gt;6 -->
<g id="edge11" class="edge">
<title>7&#45;&gt;6</title>
<path fill="none" stroke="grey" stroke-width="2" d="M223.84,-215.7C222.74,-207.98 221.42,-198.71 220.19,-190.11"/>
<polygon fill="grey" stroke="grey" stroke-width="2" points="223.64,-189.51 218.76,-180.1 216.71,-190.5 223.64,-189.51"/>
</g>
<!-- 8&#45;&gt;0 -->
<g id="edge3" class="edge">
<title>8&#45;&gt;0</title>
<path fill="none" stroke="grey" stroke-width="2" d="M401.86,-143.87C363.92,-118.34 292.47,-70.25 250.16,-41.78"/>
<polygon fill="grey" stroke="grey" stroke-width="2" points="252.11,-38.87 241.86,-36.19 248.2,-44.68 252.11,-38.87"/>
</g>
<!-- 9&#45;&gt;8 -->
<g id="edge14" class="edge">
<title>9&#45;&gt;8</title>
<path fill="none" stroke="grey" stroke-width="2" d="M388.92,-215.7C394.91,-207.47 402.19,-197.48 408.79,-188.42"/>
<polygon fill="grey" stroke="grey" stroke-width="2" points="411.79,-190.25 414.85,-180.1 406.14,-186.13 411.79,-190.25"/>
</g>
<!-- 10&#45;&gt;8 -->
<g id="edge16" class="edge">
<title>10&#45;&gt;8</title>
<path fill="none" stroke="grey" stroke-width="2" d="M466.46,-215.7C460.29,-207.39 452.78,-197.28 445.99,-188.14"/>
<polygon fill="grey" stroke="grey" stroke-width="2" points="448.79,-186.04 440.02,-180.1 443.17,-190.22 448.79,-186.04"/>
</g>
<!-- 11&#45;&gt;8 -->
<g id="edge17" class="edge">
<title>11&#45;&gt;8</title>
<path fill="none" stroke="grey" stroke-width="2" d="M527.93,-216.76C510.18,-207.28 487.55,-195.19 468.25,-184.87"/>
<polygon fill="grey" stroke="grey" stroke-width="2" points="469.83,-181.75 459.36,-180.12 466.53,-187.92 469.83,-181.75"/>
</g>
<!-- 12&#45;&gt;8 -->
<g id="edge18" class="edge">
<title>12&#45;&gt;8</title>
<path fill="none" stroke="grey" stroke-width="2" d="M606.4,-219.38C603.34,-218.2 600.28,-217.06 597.31,-216 554.26,-200.6 504.21,-185.31 469.62,-175.13"/>
<polygon fill="grey" stroke="grey" stroke-width="2" points="470.43,-171.73 459.85,-172.28 468.47,-178.44 470.43,-171.73"/>
</g>
<!-- 13&#45;&gt;8 -->
<g id="edge19" class="edge">
<title>13&#45;&gt;8</title>
<path fill="none" stroke="grey" stroke-width="2" d="M690.29,-219.06C687.29,-217.95 684.26,-216.91 681.31,-216 608.43,-193.5 520.83,-177.58 469.88,-169.37"/>
<polygon fill="grey" stroke="grey" stroke-width="2" points="470.31,-165.9 459.88,-167.79 469.21,-172.81 470.31,-165.9"/>
</g>
</g>
</svg>
