<?xml version="1.0" encoding="UTF-8" standalone="no"?>
<!DOCTYPE svg PUBLIC "-//W3C//DTD SVG 1.1//EN"
 "http://www.w3.org/Graphics/SVG/1.1/DTD/svg11.dtd">
<!-- Generated by graphviz version 2.47.1 (20210511.0111)
 -->
<!-- Title: snakemake_dag Pages: 1 -->
<svg width="844pt" height="404pt"
 viewBox="0.00 0.00 844.00 404.00" xmlns="http://www.w3.org/2000/svg" xmlns:xlink="http://www.w3.org/1999/xlink">
<g id="graph0" class="graph" transform="scale(1 1) rotate(0) translate(4 400)">
<title>snakemake_dag</title>
<polygon fill="white" stroke="transparent" points="-4,4 -4,-400 840,-400 840,4 -4,4"/>
<!-- 0 -->
<g id="node1" class="node">
<title>0</title>
<path fill="none" stroke="#56b9d8" stroke-width="2" stroke-dasharray="5,2" d="M320,-36C320,-36 290,-36 290,-36 284,-36 278,-30 278,-24 278,-24 278,-12 278,-12 278,-6 284,0 290,0 290,0 320,0 320,0 326,0 332,-6 332,-12 332,-12 332,-24 332,-24 332,-30 326,-36 320,-36"/>
<text text-anchor="middle" x="305" y="-15.5" font-family="sans" font-size="10.00">all</text>
</g>
<!-- 1 -->
<g id="node2" class="node">
<title>1</title>
<path fill="none" stroke="#567bd8" stroke-width="2" stroke-dasharray="5,2" d="M217.5,-108C217.5,-108 118.5,-108 118.5,-108 112.5,-108 106.5,-102 106.5,-96 106.5,-96 106.5,-84 106.5,-84 106.5,-78 112.5,-72 118.5,-72 118.5,-72 217.5,-72 217.5,-72 223.5,-72 229.5,-78 229.5,-84 229.5,-84 229.5,-96 229.5,-96 229.5,-102 223.5,-108 217.5,-108"/>
<text text-anchor="middle" x="168" y="-87.5" font-family="sans" font-size="10.00">figure_networks_html</text>
</g>
<!-- 1&#45;&gt;0 -->
<g id="edge1" class="edge">
<title>1&#45;&gt;0</title>
<path fill="none" stroke="grey" stroke-width="2" d="M201.51,-71.88C221.85,-61.49 247.8,-48.22 268.63,-37.58"/>
<polygon fill="grey" stroke="grey" stroke-width="2" points="270.49,-40.56 277.81,-32.9 267.31,-34.33 270.49,-40.56"/>
</g>
<!-- 2 -->
<g id="node3" class="node">
<title>2</title>
<path fill="none" stroke="#d85656" stroke-width="2" stroke-dasharray="5,2" d="M173.5,-180C173.5,-180 102.5,-180 102.5,-180 96.5,-180 90.5,-174 90.5,-168 90.5,-168 90.5,-156 90.5,-156 90.5,-150 96.5,-144 102.5,-144 102.5,-144 173.5,-144 173.5,-144 179.5,-144 185.5,-150 185.5,-156 185.5,-156 185.5,-168 185.5,-168 185.5,-174 179.5,-180 173.5,-180"/>
<text text-anchor="middle" x="138" y="-159.5" font-family="sans" font-size="10.00">figure_networks</text>
</g>
<!-- 2&#45;&gt;1 -->
<g id="edge5" class="edge">
<title>2&#45;&gt;1</title>
<path fill="none" stroke="grey" stroke-width="2" d="M145.42,-143.7C148.79,-135.81 152.87,-126.3 156.62,-117.55"/>
<polygon fill="grey" stroke="grey" stroke-width="2" points="159.95,-118.67 160.67,-108.1 153.51,-115.92 159.95,-118.67"/>
</g>
<!-- 3 -->
<g id="node4" class="node">
<title>3</title>
<path fill="none" stroke="#56d89a" stroke-width="2" stroke-dasharray="5,2" d="M477,-324C477,-324 391,-324 391,-324 385,-324 379,-318 379,-312 379,-312 379,-300 379,-300 379,-294 385,-288 391,-288 391,-288 477,-288 477,-288 483,-288 489,-294 489,-300 489,-300 489,-312 489,-312 489,-318 483,-324 477,-324"/>
<text text-anchor="middle" x="434" y="-303.5" font-family="sans" font-size="10.00">create_enm_object</text>
</g>
<!-- 3&#45;&gt;2 -->
<g id="edge6" class="edge">
<title>3&#45;&gt;2</title>
<path fill="none" stroke="grey" stroke-width="2" d="M378.72,-298.75C314.94,-290.59 214.97,-274.66 185,-252 164.73,-236.68 152.32,-210.04 145.38,-189.89"/>
<polygon fill="grey" stroke="grey" stroke-width="2" points="148.7,-188.78 142.33,-180.32 142.04,-190.91 148.7,-188.78"/>
</g>
<!-- 5 -->
<g id="node6" class="node">
<title>5</title>
<path fill="none" stroke="#97d856" stroke-width="2" stroke-dasharray="5,2" d="M98,-252C98,-252 12,-252 12,-252 6,-252 0,-246 0,-240 0,-240 0,-228 0,-228 0,-222 6,-216 12,-216 12,-216 98,-216 98,-216 104,-216 110,-222 110,-228 110,-228 110,-240 110,-240 110,-246 104,-252 98,-252"/>
<text text-anchor="middle" x="55" y="-231.5" font-family="sans" font-size="10.00">effector_sensor_go</text>
</g>
<!-- 3&#45;&gt;5 -->
<g id="edge9" class="edge">
<title>3&#45;&gt;5</title>
<path fill="none" stroke="grey" stroke-width="2" d="M378.9,-296.81C316.73,-287.29 212.73,-270.49 124,-252 122.74,-251.74 121.47,-251.47 120.2,-251.19"/>
<polygon fill="grey" stroke="grey" stroke-width="2" points="120.8,-247.74 110.28,-248.99 119.28,-254.58 120.8,-247.74"/>
</g>
<!-- 6 -->
<g id="node7" class="node">
<title>6</title>
<path fill="none" stroke="#d6d856" stroke-width="2" stroke-dasharray="5,2" d="M375,-180C375,-180 345,-180 345,-180 339,-180 333,-174 333,-168 333,-168 333,-156 333,-156 333,-150 339,-144 345,-144 345,-144 375,-144 375,-144 381,-144 387,-150 387,-156 387,-156 387,-168 387,-168 387,-174 381,-180 375,-180"/>
<text text-anchor="middle" x="360" y="-159.5" font-family="sans" font-size="10.00">figure2</text>
</g>
<!-- 3&#45;&gt;6 -->
<g id="edge11" class="edge">
<title>3&#45;&gt;6</title>
<path fill="none" stroke="grey" stroke-width="2" d="M410.47,-287.8C399.3,-278.42 386.73,-265.91 379,-252 368.42,-232.95 363.72,-208.59 361.64,-190.18"/>
<polygon fill="grey" stroke="grey" stroke-width="2" points="365.12,-189.73 360.7,-180.1 358.15,-190.39 365.12,-189.73"/>
</g>
<!-- 7 -->
<g id="node8" class="node">
<title>7</title>
<path fill="none" stroke="#59d856" stroke-width="2" stroke-dasharray="5,2" d="M468,-252C468,-252 400,-252 400,-252 394,-252 388,-246 388,-240 388,-240 388,-228 388,-228 388,-222 394,-216 400,-216 400,-216 468,-216 468,-216 474,-216 480,-222 480,-228 480,-228 480,-240 480,-240 480,-246 474,-252 468,-252"/>
<text text-anchor="middle" x="434" y="-231.5" font-family="sans" font-size="10.00">rewire_network</text>
</g>
<!-- 3&#45;&gt;7 -->
<g id="edge13" class="edge">
<title>3&#45;&gt;7</title>
<path fill="none" stroke="grey" stroke-width="2" d="M434,-287.7C434,-279.98 434,-270.71 434,-262.11"/>
<polygon fill="grey" stroke="grey" stroke-width="2" points="437.5,-262.1 434,-252.1 430.5,-262.1 437.5,-262.1"/>
</g>
<!-- 8 -->
<g id="node9" class="node">
<title>8</title>
<path fill="none" stroke="#56d87b" stroke-width="2" stroke-dasharray="5,2" d="M270,-180C270,-180 232,-180 232,-180 226,-180 220,-174 220,-168 220,-168 220,-156 220,-156 220,-150 226,-144 232,-144 232,-144 270,-144 270,-144 276,-144 282,-150 282,-156 282,-156 282,-168 282,-168 282,-174 276,-180 270,-180"/>
<text text-anchor="middle" x="251" y="-159.5" font-family="sans" font-size="10.00">figure3_4</text>
</g>
<!-- 3&#45;&gt;8 -->
<g id="edge14" class="edge">
<title>3&#45;&gt;8</title>
<path fill="none" stroke="grey" stroke-width="2" d="M378.81,-300.55C315.79,-294.19 218.48,-280.03 196,-252 179.48,-231.39 199.47,-205.48 219.83,-186.94"/>
<polygon fill="grey" stroke="grey" stroke-width="2" points="222.32,-189.41 227.58,-180.22 217.73,-184.13 222.32,-189.41"/>
</g>
<!-- 9 -->
<g id="node10" class="node">
<title>9</title>
<path fill="none" stroke="#56d8d8" stroke-width="2" stroke-dasharray="5,2" d="M319.5,-252C319.5,-252 216.5,-252 216.5,-252 210.5,-252 204.5,-246 204.5,-240 204.5,-240 204.5,-228 204.5,-228 204.5,-222 210.5,-216 216.5,-216 216.5,-216 319.5,-216 319.5,-216 325.5,-216 331.5,-222 331.5,-228 331.5,-228 331.5,-240 331.5,-240 331.5,-246 325.5,-252 319.5,-252"/>
<text text-anchor="middle" x="268" y="-231.5" font-family="sans" font-size="10.00">sensor_in_to_out_ratio</text>
</g>
<!-- 3&#45;&gt;9 -->
<g id="edge17" class="edge">
<title>3&#45;&gt;9</title>
<path fill="none" stroke="grey" stroke-width="2" d="M393.39,-287.88C370.6,-278.26 341.97,-266.19 317.83,-256.01"/>
<polygon fill="grey" stroke="grey" stroke-width="2" points="319.05,-252.73 308.48,-252.07 316.33,-259.18 319.05,-252.73"/>
</g>
<!-- 11 -->
<g id="node12" class="node">
<title>11</title>
<path fill="none" stroke="#d8b456" stroke-width="2" stroke-dasharray="5,2" d="M737.5,-252C737.5,-252 692.5,-252 692.5,-252 686.5,-252 680.5,-246 680.5,-240 680.5,-240 680.5,-228 680.5,-228 680.5,-222 686.5,-216 692.5,-216 692.5,-216 737.5,-216 737.5,-216 743.5,-216 749.5,-222 749.5,-228 749.5,-228 749.5,-240 749.5,-240 749.5,-246 743.5,-252 737.5,-252"/>
<text text-anchor="middle" x="715" y="-231.5" font-family="sans" font-size="10.00">rwr_col_go</text>
</g>
<!-- 3&#45;&gt;11 -->
<g id="edge22" class="edge">
<title>3&#45;&gt;11</title>
<path fill="none" stroke="grey" stroke-width="2" d="M489.2,-295.07C535.35,-286.23 602.97,-272 670.19,-252.01"/>
<polygon fill="grey" stroke="grey" stroke-width="2" points="671.54,-255.26 680.1,-249.02 669.51,-248.56 671.54,-255.26"/>
</g>
<!-- 12 -->
<g id="node13" class="node">
<title>12</title>
<path fill="none" stroke="#78d856" stroke-width="2" stroke-dasharray="5,2" d="M824,-252C824,-252 780,-252 780,-252 774,-252 768,-246 768,-240 768,-240 768,-228 768,-228 768,-222 774,-216 780,-216 780,-216 824,-216 824,-216 830,-216 836,-222 836,-228 836,-228 836,-240 836,-240 836,-246 830,-252 824,-252"/>
<text text-anchor="middle" x="802" y="-231.5" font-family="sans" font-size="10.00">prs_col_go</text>
</g>
<!-- 3&#45;&gt;12 -->
<g id="edge24" class="edge">
<title>3&#45;&gt;12</title>
<path fill="none" stroke="grey" stroke-width="2" d="M489.11,-299.66C552.28,-292.74 658.85,-278.6 758.07,-251.93"/>
<polygon fill="grey" stroke="grey" stroke-width="2" points="759.24,-255.24 767.96,-249.22 757.39,-248.49 759.24,-255.24"/>
</g>
<!-- 13 -->
<g id="node14" class="node">
<title>13</title>
<path fill="none" stroke="#d89556" stroke-width="2" stroke-dasharray="5,2" d="M559.5,-252C559.5,-252 510.5,-252 510.5,-252 504.5,-252 498.5,-246 498.5,-240 498.5,-240 498.5,-228 498.5,-228 498.5,-222 504.5,-216 510.5,-216 510.5,-216 559.5,-216 559.5,-216 565.5,-216 571.5,-222 571.5,-228 571.5,-228 571.5,-240 571.5,-240 571.5,-246 565.5,-252 559.5,-252"/>
<text text-anchor="middle" x="535" y="-231.5" font-family="sans" font-size="10.00">rwr_row_go</text>
</g>
<!-- 3&#45;&gt;13 -->
<g id="edge26" class="edge">
<title>3&#45;&gt;13</title>
<path fill="none" stroke="grey" stroke-width="2" d="M458.71,-287.88C471.67,-278.89 487.73,-267.76 501.77,-258.03"/>
<polygon fill="grey" stroke="grey" stroke-width="2" points="503.97,-260.76 510.2,-252.19 499.98,-255.01 503.97,-260.76"/>
</g>
<!-- 14 -->
<g id="node15" class="node">
<title>14</title>
<path fill="none" stroke="#d87556" stroke-width="2" stroke-dasharray="5,2" d="M650,-252C650,-252 602,-252 602,-252 596,-252 590,-246 590,-240 590,-240 590,-228 590,-228 590,-222 596,-216 602,-216 602,-216 650,-216 650,-216 656,-216 662,-222 662,-228 662,-228 662,-240 662,-240 662,-246 656,-252 650,-252"/>
<text text-anchor="middle" x="626" y="-231.5" font-family="sans" font-size="10.00">prs_row_go</text>
</g>
<!-- 3&#45;&gt;14 -->
<g id="edge28" class="edge">
<title>3&#45;&gt;14</title>
<path fill="none" stroke="grey" stroke-width="2" d="M481.73,-288C508.27,-278.49 542.12,-266.3 579.96,-252.36"/>
<polygon fill="grey" stroke="grey" stroke-width="2" points="581.5,-255.52 589.67,-248.78 579.08,-248.96 581.5,-255.52"/>
</g>
<!-- 4 -->
<g id="node5" class="node">
<title>4</title>
<path fill="none" stroke="#56d8b9" stroke-width="2" stroke-dasharray="5,2" d="M612,-396C612,-396 522,-396 522,-396 516,-396 510,-390 510,-384 510,-384 510,-372 510,-372 510,-366 516,-360 522,-360 522,-360 612,-360 612,-360 618,-360 624,-366 624,-372 624,-372 624,-384 624,-384 624,-390 618,-396 612,-396"/>
<text text-anchor="middle" x="567" y="-375.5" font-family="sans" font-size="10.00">read_costanzo_data</text>
</g>
<!-- 4&#45;&gt;3 -->
<g id="edge8" class="edge">
<title>4&#45;&gt;3</title>
<path fill="none" stroke="grey" stroke-width="2" d="M534.46,-359.88C516.75,-350.55 494.65,-338.92 475.68,-328.94"/>
<polygon fill="grey" stroke="grey" stroke-width="2" points="477.14,-325.75 466.66,-324.19 473.88,-331.94 477.14,-325.75"/>
</g>
<!-- 4&#45;&gt;5 -->
<g id="edge10" class="edge">
<title>4&#45;&gt;5</title>
<path fill="none" stroke="grey" stroke-width="2" d="M509.62,-361.77C470.29,-351.28 416.95,-336.95 370,-324 283.42,-300.12 183.68,-271.81 120.03,-253.63"/>
<polygon fill="grey" stroke="grey" stroke-width="2" points="120.71,-250.19 110.14,-250.8 118.79,-256.92 120.71,-250.19"/>
</g>
<!-- 4&#45;&gt;11 -->
<g id="edge23" class="edge">
<title>4&#45;&gt;11</title>
<path fill="none" stroke="grey" stroke-width="2" d="M584.85,-359.87C610.97,-334.82 659.71,-288.05 689.56,-259.41"/>
<polygon fill="grey" stroke="grey" stroke-width="2" points="692.29,-261.64 697.08,-252.19 687.45,-256.59 692.29,-261.64"/>
</g>
<!-- 4&#45;&gt;12 -->
<g id="edge25" class="edge">
<title>4&#45;&gt;12</title>
<path fill="none" stroke="grey" stroke-width="2" d="M595.54,-359.83C612.77,-349.46 635.15,-335.98 655,-324 692.49,-301.36 735.33,-275.42 765.05,-257.4"/>
<polygon fill="grey" stroke="grey" stroke-width="2" points="767.09,-260.26 773.83,-252.08 763.46,-254.27 767.09,-260.26"/>
</g>
<!-- 4&#45;&gt;13 -->
<g id="edge27" class="edge">
<title>4&#45;&gt;13</title>
<path fill="none" stroke="grey" stroke-width="2" d="M563.14,-359.87C557.66,-335.56 547.58,-290.82 541.09,-262.01"/>
<polygon fill="grey" stroke="grey" stroke-width="2" points="544.49,-261.18 538.87,-252.19 537.66,-262.71 544.49,-261.18"/>
</g>
<!-- 4&#45;&gt;14 -->
<g id="edge29" class="edge">
<title>4&#45;&gt;14</title>
<path fill="none" stroke="grey" stroke-width="2" d="M574.12,-359.87C584.26,-335.46 602.97,-290.43 614.93,-261.64"/>
<polygon fill="grey" stroke="grey" stroke-width="2" points="618.25,-262.77 618.86,-252.19 611.79,-260.08 618.25,-262.77"/>
</g>
<!-- 5&#45;&gt;2 -->
<g id="edge7" class="edge">
<title>5&#45;&gt;2</title>
<path fill="none" stroke="grey" stroke-width="2" d="M75.52,-215.7C85.87,-206.97 98.59,-196.24 109.84,-186.75"/>
<polygon fill="grey" stroke="grey" stroke-width="2" points="112.33,-189.23 117.72,-180.1 107.82,-183.88 112.33,-189.23"/>
</g>
<!-- 5&#45;&gt;8 -->
<g id="edge16" class="edge">
<title>5&#45;&gt;8</title>
<path fill="none" stroke="grey" stroke-width="2" d="M102.7,-215.97C135.62,-204.21 178.94,-188.74 210.25,-177.55"/>
<polygon fill="grey" stroke="grey" stroke-width="2" points="211.72,-180.74 219.96,-174.08 209.37,-174.15 211.72,-180.74"/>
</g>
<!-- 6&#45;&gt;0 -->
<g id="edge2" class="edge">
<title>6&#45;&gt;0</title>
<path fill="none" stroke="grey" stroke-width="2" d="M353.37,-143.87C343.91,-119.46 326.47,-74.43 315.32,-45.64"/>
<polygon fill="grey" stroke="grey" stroke-width="2" points="318.53,-44.25 311.66,-36.19 312.01,-46.78 318.53,-44.25"/>
</g>
<!-- 7&#45;&gt;6 -->
<g id="edge12" class="edge">
<title>7&#45;&gt;6</title>
<path fill="none" stroke="grey" stroke-width="2" d="M415.71,-215.7C406.57,-207.05 395.36,-196.45 385.4,-187.03"/>
<polygon fill="grey" stroke="grey" stroke-width="2" points="387.75,-184.43 378.08,-180.1 382.94,-189.52 387.75,-184.43"/>
</g>
<!-- 8&#45;&gt;0 -->
<g id="edge3" class="edge">
<title>8&#45;&gt;0</title>
<path fill="none" stroke="grey" stroke-width="2" d="M257.51,-143.87C266.8,-119.46 283.92,-74.43 294.87,-45.64"/>
<polygon fill="grey" stroke="grey" stroke-width="2" points="298.18,-46.78 298.46,-36.19 291.64,-44.29 298.18,-46.78"/>
</g>
<!-- 9&#45;&gt;8 -->
<g id="edge15" class="edge">
<title>9&#45;&gt;8</title>
<path fill="none" stroke="grey" stroke-width="2" d="M263.8,-215.7C261.9,-207.9 259.62,-198.51 257.52,-189.83"/>
<polygon fill="grey" stroke="grey" stroke-width="2" points="260.92,-189 255.15,-180.1 254.11,-190.65 260.92,-189"/>
</g>
<!-- 10 -->
<g id="node11" class="node">
<title>10</title>
<path fill="none" stroke="#b6d856" stroke-width="2" stroke-dasharray="5,2" d="M641,-180C641,-180 611,-180 611,-180 605,-180 599,-174 599,-168 599,-168 599,-156 599,-156 599,-150 605,-144 611,-144 611,-144 641,-144 641,-144 647,-144 653,-150 653,-156 653,-156 653,-168 653,-168 653,-174 647,-180 641,-180"/>
<text text-anchor="middle" x="626" y="-159.5" font-family="sans" font-size="10.00">figure5</text>
</g>
<!-- 10&#45;&gt;0 -->
<g id="edge4" class="edge">
<title>10&#45;&gt;0</title>
<path fill="none" stroke="grey" stroke-width="2" d="M598.91,-149.02C541.4,-123.58 407.06,-64.15 341.84,-35.3"/>
<polygon fill="grey" stroke="grey" stroke-width="2" points="342.92,-31.95 332.36,-31.1 340.09,-38.35 342.92,-31.95"/>
</g>
<!-- 11&#45;&gt;10 -->
<g id="edge18" class="edge">
<title>11&#45;&gt;10</title>
<path fill="none" stroke="grey" stroke-width="2" d="M693,-215.7C681.79,-206.88 668,-196.03 655.85,-186.47"/>
<polygon fill="grey" stroke="grey" stroke-width="2" points="657.77,-183.54 647.75,-180.1 653.44,-189.04 657.77,-183.54"/>
</g>
<!-- 12&#45;&gt;10 -->
<g id="edge19" class="edge">
<title>12&#45;&gt;10</title>
<path fill="none" stroke="grey" stroke-width="2" d="M767.65,-219.34C737.41,-207.31 693.5,-189.85 662.61,-177.56"/>
<polygon fill="grey" stroke="grey" stroke-width="2" points="663.65,-174.21 653.07,-173.76 661.06,-180.71 663.65,-174.21"/>
</g>
<!-- 13&#45;&gt;10 -->
<g id="edge20" class="edge">
<title>13&#45;&gt;10</title>
<path fill="none" stroke="grey" stroke-width="2" d="M557.49,-215.7C568.96,-206.88 583.06,-196.03 595.48,-186.47"/>
<polygon fill="grey" stroke="grey" stroke-width="2" points="597.97,-188.98 603.76,-180.1 593.7,-183.43 597.97,-188.98"/>
</g>
<!-- 14&#45;&gt;10 -->
<g id="edge21" class="edge">
<title>14&#45;&gt;10</title>
<path fill="none" stroke="grey" stroke-width="2" d="M626,-215.7C626,-207.98 626,-198.71 626,-190.11"/>
<polygon fill="grey" stroke="grey" stroke-width="2" points="629.5,-190.1 626,-180.1 622.5,-190.1 629.5,-190.1"/>
</g>
</g>
</svg>
