<?xml version="1.0" encoding="UTF-8" standalone="no"?>
<!DOCTYPE svg PUBLIC "-//W3C//DTD SVG 1.1//EN"
 "http://www.w3.org/Graphics/SVG/1.1/DTD/svg11.dtd">
<!-- Generated by graphviz version 2.44.1 (20200629.0846)
 -->
<!-- Title: snakemake_dag Pages: 1 -->
<svg width="604pt" height="404pt"
 viewBox="0.00 0.00 604.49 404.00" xmlns="http://www.w3.org/2000/svg" xmlns:xlink="http://www.w3.org/1999/xlink">
<g id="graph0" class="graph" transform="scale(1 1) rotate(0) translate(4 400)">
<title>snakemake_dag</title>
<polygon fill="white" stroke="transparent" points="-4,4 -4,-400 600.49,-400 600.49,4 -4,4"/>
<!-- 0 -->
<g id="node1" class="node">
<title>0</title>
<path fill="none" stroke="#8fd856" stroke-width="2" d="M310.49,-36C310.49,-36 280.49,-36 280.49,-36 274.49,-36 268.49,-30 268.49,-24 268.49,-24 268.49,-12 268.49,-12 268.49,-6 274.49,0 280.49,0 280.49,0 310.49,0 310.49,0 316.49,0 322.49,-6 322.49,-12 322.49,-12 322.49,-24 322.49,-24 322.49,-30 316.49,-36 310.49,-36"/>
<text text-anchor="middle" x="295.49" y="-15" font-family="sans" font-size="10.00">all</text>
</g>
<!-- 1 -->
<g id="node2" class="node">
<title>1</title>
<path fill="none" stroke="#56d0d8" stroke-width="2" d="M374.86,-108C374.86,-108 294.12,-108 294.12,-108 288.12,-108 282.12,-102 282.12,-96 282.12,-96 282.12,-84 282.12,-84 282.12,-78 288.12,-72 294.12,-72 294.12,-72 374.86,-72 374.86,-72 380.86,-72 386.86,-78 386.86,-84 386.86,-84 386.86,-96 386.86,-96 386.86,-102 380.86,-108 374.86,-108"/>
<text text-anchor="middle" x="334.49" y="-87" font-family="sans" font-size="10.00">figure_networks_html</text>
</g>
<!-- 1&#45;&gt;0 -->
<g id="edge1" class="edge">
<title>1&#45;&gt;0</title>
<path fill="none" stroke="grey" stroke-width="2" d="M324.85,-71.7C320.36,-63.64 314.93,-53.89 309.97,-44.98"/>
<polygon fill="grey" stroke="grey" stroke-width="2" points="312.94,-43.14 305.02,-36.1 306.83,-46.54 312.94,-43.14"/>
</g>
<!-- 2 -->
<g id="node3" class="node">
<title>2</title>
<path fill="none" stroke="#56d8b9" stroke-width="2" d="M366.02,-180C366.02,-180 308.96,-180 308.96,-180 302.96,-180 296.96,-174 296.96,-168 296.96,-168 296.96,-156 296.96,-156 296.96,-150 302.96,-144 308.96,-144 308.96,-144 366.02,-144 366.02,-144 372.02,-144 378.02,-150 378.02,-156 378.02,-156 378.02,-168 378.02,-168 378.02,-174 372.02,-180 366.02,-180"/>
<text text-anchor="middle" x="337.49" y="-159" font-family="sans" font-size="10.00">figure_networks</text>
</g>
<!-- 2&#45;&gt;1 -->
<g id="edge7" class="edge">
<title>2&#45;&gt;1</title>
<path fill="none" stroke="grey" stroke-width="2" d="M336.75,-143.7C336.42,-135.98 336.02,-126.71 335.65,-118.11"/>
<polygon fill="grey" stroke="grey" stroke-width="2" points="339.15,-117.95 335.22,-108.1 332.15,-118.25 339.15,-117.95"/>
</g>
<!-- 3 -->
<g id="node4" class="node">
<title>3</title>
<path fill="none" stroke="#56d86b" stroke-width="2" stroke-dasharray="5,2" d="M374.01,-324C374.01,-324 306.97,-324 306.97,-324 300.97,-324 294.97,-318 294.97,-312 294.97,-312 294.97,-300 294.97,-300 294.97,-294 300.97,-288 306.97,-288 306.97,-288 374.01,-288 374.01,-288 380.01,-288 386.01,-294 386.01,-300 386.01,-300 386.01,-312 386.01,-312 386.01,-318 380.01,-324 374.01,-324"/>
<text text-anchor="middle" x="340.49" y="-303" font-family="sans" font-size="10.00">create_enm_object</text>
</g>
<!-- 3&#45;&gt;2 -->
<g id="edge8" class="edge">
<title>3&#45;&gt;2</title>
<path fill="none" stroke="grey" stroke-width="2" d="M346.31,-287.56C349.42,-277.33 352.92,-264.08 354.49,-252 356.55,-236.13 356.96,-231.81 354.49,-216 353.13,-207.31 350.59,-198.1 347.88,-189.84"/>
<polygon fill="grey" stroke="grey" stroke-width="2" points="351.16,-188.62 344.56,-180.33 344.55,-190.93 351.16,-188.62"/>
</g>
<!-- 5 -->
<g id="node6" class="node">
<title>5</title>
<path fill="none" stroke="#56a9d8" stroke-width="2" stroke-dasharray="5,2" d="M174.62,-252C174.62,-252 106.36,-252 106.36,-252 100.36,-252 94.36,-246 94.36,-240 94.36,-240 94.36,-228 94.36,-228 94.36,-222 100.36,-216 106.36,-216 106.36,-216 174.62,-216 174.62,-216 180.62,-216 186.62,-222 186.62,-228 186.62,-228 186.62,-240 186.62,-240 186.62,-246 180.62,-252 174.62,-252"/>
<text text-anchor="middle" x="140.49" y="-231" font-family="sans" font-size="10.00">effector_sensor_go</text>
</g>
<!-- 3&#45;&gt;5 -->
<g id="edge11" class="edge">
<title>3&#45;&gt;5</title>
<path fill="none" stroke="grey" stroke-width="2" d="M294.86,-289.03C265.62,-278.8 227.49,-265.45 196.43,-254.58"/>
<polygon fill="grey" stroke="grey" stroke-width="2" points="197.21,-251.15 186.62,-251.15 194.9,-257.75 197.21,-251.15"/>
</g>
<!-- 6 -->
<g id="node7" class="node">
<title>6</title>
<path fill="none" stroke="#d8a456" stroke-width="2" d="M438.49,-180C438.49,-180 408.49,-180 408.49,-180 402.49,-180 396.49,-174 396.49,-168 396.49,-168 396.49,-156 396.49,-156 396.49,-150 402.49,-144 408.49,-144 408.49,-144 438.49,-144 438.49,-144 444.49,-144 450.49,-150 450.49,-156 450.49,-156 450.49,-168 450.49,-168 450.49,-174 444.49,-180 438.49,-180"/>
<text text-anchor="middle" x="423.49" y="-159" font-family="sans" font-size="10.00">figure2</text>
</g>
<!-- 3&#45;&gt;6 -->
<g id="edge13" class="edge">
<title>3&#45;&gt;6</title>
<path fill="none" stroke="grey" stroke-width="2" d="M350.5,-287.87C364.9,-263.24 391.55,-217.64 408.36,-188.88"/>
<polygon fill="grey" stroke="grey" stroke-width="2" points="411.42,-190.59 413.44,-180.19 405.37,-187.06 411.42,-190.59"/>
</g>
<!-- 7 -->
<g id="node8" class="node">
<title>7</title>
<path fill="none" stroke="#68d856" stroke-width="2" d="M512.29,-252C512.29,-252 456.69,-252 456.69,-252 450.69,-252 444.69,-246 444.69,-240 444.69,-240 444.69,-228 444.69,-228 444.69,-222 450.69,-216 456.69,-216 456.69,-216 512.29,-216 512.29,-216 518.29,-216 524.29,-222 524.29,-228 524.29,-228 524.29,-240 524.29,-240 524.29,-246 518.29,-252 512.29,-252"/>
<text text-anchor="middle" x="484.49" y="-231" font-family="sans" font-size="10.00">rewire_network</text>
</g>
<!-- 3&#45;&gt;7 -->
<g id="edge15" class="edge">
<title>3&#45;&gt;7</title>
<path fill="none" stroke="grey" stroke-width="2" d="M375.72,-287.88C395.07,-278.47 419.26,-266.71 439.92,-256.67"/>
<polygon fill="grey" stroke="grey" stroke-width="2" points="441.66,-259.71 449.13,-252.19 438.6,-253.41 441.66,-259.71"/>
</g>
<!-- 8 -->
<g id="node9" class="node">
<title>8</title>
<path fill="none" stroke="#56d892" stroke-width="2" d="M266.87,-180C266.87,-180 236.11,-180 236.11,-180 230.11,-180 224.11,-174 224.11,-168 224.11,-168 224.11,-156 224.11,-156 224.11,-150 230.11,-144 236.11,-144 236.11,-144 266.87,-144 266.87,-144 272.87,-144 278.87,-150 278.87,-156 278.87,-156 278.87,-168 278.87,-168 278.87,-174 272.87,-180 266.87,-180"/>
<text text-anchor="middle" x="251.49" y="-159" font-family="sans" font-size="10.00">figure3_4</text>
</g>
<!-- 3&#45;&gt;8 -->
<g id="edge16" class="edge">
<title>3&#45;&gt;8</title>
<path fill="none" stroke="grey" stroke-width="2" d="M340.32,-287.94C339.38,-268.98 335.57,-238.13 321.49,-216 313.05,-202.73 300.04,-191.54 287.51,-182.92"/>
<polygon fill="grey" stroke="grey" stroke-width="2" points="289.27,-179.89 278.98,-177.37 285.45,-185.76 289.27,-179.89"/>
</g>
<!-- 9 -->
<g id="node10" class="node">
<title>9</title>
<path fill="none" stroke="#b6d856" stroke-width="2" stroke-dasharray="5,2" d="M300.7,-252C300.7,-252 216.28,-252 216.28,-252 210.28,-252 204.28,-246 204.28,-240 204.28,-240 204.28,-228 204.28,-228 204.28,-222 210.28,-216 216.28,-216 216.28,-216 300.7,-216 300.7,-216 306.7,-216 312.7,-222 312.7,-228 312.7,-228 312.7,-240 312.7,-240 312.7,-246 306.7,-252 300.7,-252"/>
<text text-anchor="middle" x="258.49" y="-231" font-family="sans" font-size="10.00">sensor_in_to_out_ratio</text>
</g>
<!-- 3&#45;&gt;9 -->
<g id="edge19" class="edge">
<title>3&#45;&gt;9</title>
<path fill="none" stroke="grey" stroke-width="2" d="M320.22,-287.7C309.99,-278.97 297.43,-268.24 286.31,-258.75"/>
<polygon fill="grey" stroke="grey" stroke-width="2" points="288.4,-255.94 278.53,-252.1 283.86,-261.26 288.4,-255.94"/>
</g>
<!-- 11 -->
<g id="node12" class="node">
<title>11</title>
<path fill="none" stroke="#d8cb56" stroke-width="2" d="M584.49,-252C584.49,-252 554.49,-252 554.49,-252 548.49,-252 542.49,-246 542.49,-240 542.49,-240 542.49,-228 542.49,-228 542.49,-222 548.49,-216 554.49,-216 554.49,-216 584.49,-216 584.49,-216 590.49,-216 596.49,-222 596.49,-228 596.49,-228 596.49,-240 596.49,-240 596.49,-246 590.49,-252 584.49,-252"/>
<text text-anchor="middle" x="569.49" y="-231" font-family="sans" font-size="10.00">figs2</text>
</g>
<!-- 3&#45;&gt;11 -->
<g id="edge23" class="edge">
<title>3&#45;&gt;11</title>
<path fill="none" stroke="grey" stroke-width="2" d="M386.03,-294.85C423.43,-286 477.78,-271.92 532.66,-252.01"/>
<polygon fill="grey" stroke="grey" stroke-width="2" points="534.01,-255.24 542.18,-248.49 531.59,-248.67 534.01,-255.24"/>
</g>
<!-- 12 -->
<g id="node13" class="node">
<title>12</title>
<path fill="none" stroke="#d87d56" stroke-width="2" stroke-dasharray="5,2" d="M160.25,-180C160.25,-180 120.72,-180 120.72,-180 114.72,-180 108.72,-174 108.72,-168 108.72,-168 108.72,-156 108.72,-156 108.72,-150 114.72,-144 120.72,-144 120.72,-144 160.25,-144 160.25,-144 166.25,-144 172.25,-150 172.25,-156 172.25,-156 172.25,-168 172.25,-168 172.25,-174 166.25,-180 160.25,-180"/>
<text text-anchor="middle" x="140.49" y="-159" font-family="sans" font-size="10.00">figure_5_s5</text>
</g>
<!-- 3&#45;&gt;12 -->
<g id="edge25" class="edge">
<title>3&#45;&gt;12</title>
<path fill="none" stroke="grey" stroke-width="2" d="M294.85,-302.23C228.74,-297.17 111.39,-283.83 85.49,-252 68.82,-231.51 88.84,-205.58 109.24,-187"/>
<polygon fill="grey" stroke="grey" stroke-width="2" points="111.74,-189.47 117,-180.27 107.15,-184.18 111.74,-189.47"/>
</g>
<!-- 4 -->
<g id="node5" class="node">
<title>4</title>
<path fill="none" stroke="#567bd8" stroke-width="2" stroke-dasharray="5,2" d="M175.84,-396C175.84,-396 105.14,-396 105.14,-396 99.14,-396 93.14,-390 93.14,-384 93.14,-384 93.14,-372 93.14,-372 93.14,-366 99.14,-360 105.14,-360 105.14,-360 175.84,-360 175.84,-360 181.84,-360 187.84,-366 187.84,-372 187.84,-372 187.84,-384 187.84,-384 187.84,-390 181.84,-396 175.84,-396"/>
<text text-anchor="middle" x="140.49" y="-375" font-family="sans" font-size="10.00">read_costanzo_data</text>
</g>
<!-- 4&#45;&gt;3 -->
<g id="edge10" class="edge">
<title>4&#45;&gt;3</title>
<path fill="none" stroke="grey" stroke-width="2" d="M187.89,-360.41C217.07,-350.2 254.61,-337.06 285.16,-326.37"/>
<polygon fill="grey" stroke="grey" stroke-width="2" points="286.53,-329.6 294.81,-322.99 284.21,-322.99 286.53,-329.6"/>
</g>
<!-- 4&#45;&gt;5 -->
<g id="edge12" class="edge">
<title>4&#45;&gt;5</title>
<path fill="none" stroke="grey" stroke-width="2" d="M140.49,-359.87C140.49,-335.67 140.49,-291.21 140.49,-262.39"/>
<polygon fill="grey" stroke="grey" stroke-width="2" points="143.99,-262.19 140.49,-252.19 136.99,-262.19 143.99,-262.19"/>
</g>
<!-- 10 -->
<g id="node11" class="node">
<title>10</title>
<path fill="none" stroke="#d85656" stroke-width="2" stroke-dasharray="5,2" d="M78.97,-180C78.97,-180 12.01,-180 12.01,-180 6.01,-180 0.01,-174 0.01,-168 0.01,-168 0.01,-156 0.01,-156 0.01,-150 6.01,-144 12.01,-144 12.01,-144 78.97,-144 78.97,-144 84.97,-144 90.97,-150 90.97,-156 90.97,-156 90.97,-168 90.97,-168 90.97,-174 84.97,-180 78.97,-180"/>
<text text-anchor="middle" x="45.49" y="-159" font-family="sans" font-size="10.00">eff_sens_signaling</text>
</g>
<!-- 4&#45;&gt;10 -->
<g id="edge20" class="edge">
<title>4&#45;&gt;10</title>
<path fill="none" stroke="grey" stroke-width="2" d="M115.76,-359.99C104,-350.67 90.74,-338.14 82.49,-324 57.71,-281.53 49.53,-223.73 46.82,-190.19"/>
<polygon fill="grey" stroke="grey" stroke-width="2" points="50.31,-189.93 46.12,-180.2 43.33,-190.42 50.31,-189.93"/>
</g>
<!-- 4&#45;&gt;11 -->
<g id="edge22" class="edge">
<title>4&#45;&gt;11</title>
<path fill="none" stroke="grey" stroke-width="2" d="M188.05,-371C240.05,-363.56 325.34,-348.73 395.49,-324 445.58,-306.35 499.46,-277.01 533.77,-256.88"/>
<polygon fill="grey" stroke="grey" stroke-width="2" points="535.67,-259.82 542.49,-251.72 532.1,-253.8 535.67,-259.82"/>
</g>
<!-- 4&#45;&gt;12 -->
<g id="edge24" class="edge">
<title>4&#45;&gt;12</title>
<path fill="none" stroke="grey" stroke-width="2" d="M127.95,-359.9C111.87,-336.79 84.82,-293.69 74.49,-252 70.64,-236.47 67.57,-230.43 74.49,-216 80.15,-204.18 89.88,-194.17 100.15,-186.14"/>
<polygon fill="grey" stroke="grey" stroke-width="2" points="102.4,-188.83 108.44,-180.12 98.29,-183.16 102.4,-188.83"/>
</g>
<!-- 5&#45;&gt;2 -->
<g id="edge9" class="edge">
<title>5&#45;&gt;2</title>
<path fill="none" stroke="grey" stroke-width="2" d="M186.68,-216.59C216.85,-205.87 256.24,-191.87 287.2,-180.87"/>
<polygon fill="grey" stroke="grey" stroke-width="2" points="288.68,-184.06 296.93,-177.41 286.34,-177.46 288.68,-184.06"/>
</g>
<!-- 5&#45;&gt;8 -->
<g id="edge18" class="edge">
<title>5&#45;&gt;8</title>
<path fill="none" stroke="grey" stroke-width="2" d="M167.64,-215.88C182.02,-206.81 199.87,-195.55 215.4,-185.76"/>
<polygon fill="grey" stroke="grey" stroke-width="2" points="217.64,-188.48 224.23,-180.19 213.91,-182.56 217.64,-188.48"/>
</g>
<!-- 5&#45;&gt;10 -->
<g id="edge21" class="edge">
<title>5&#45;&gt;10</title>
<path fill="none" stroke="grey" stroke-width="2" d="M117.01,-215.7C104.93,-206.8 90.04,-195.82 76.97,-186.2"/>
<polygon fill="grey" stroke="grey" stroke-width="2" points="78.83,-183.22 68.7,-180.1 74.68,-188.85 78.83,-183.22"/>
</g>
<!-- 5&#45;&gt;12 -->
<g id="edge26" class="edge">
<title>5&#45;&gt;12</title>
<path fill="none" stroke="grey" stroke-width="2" d="M140.49,-215.7C140.49,-207.98 140.49,-198.71 140.49,-190.11"/>
<polygon fill="grey" stroke="grey" stroke-width="2" points="143.99,-190.1 140.49,-180.1 136.99,-190.1 143.99,-190.1"/>
</g>
<!-- 6&#45;&gt;0 -->
<g id="edge2" class="edge">
<title>6&#45;&gt;0</title>
<path fill="none" stroke="grey" stroke-width="2" d="M421.96,-143.75C419.44,-124.33 412.79,-92.79 395.49,-72 379.03,-52.22 353.25,-38.81 331.98,-30.43"/>
<polygon fill="grey" stroke="grey" stroke-width="2" points="333.17,-27.14 322.58,-26.93 330.73,-33.7 333.17,-27.14"/>
</g>
<!-- 7&#45;&gt;6 -->
<g id="edge14" class="edge">
<title>7&#45;&gt;6</title>
<path fill="none" stroke="grey" stroke-width="2" d="M469.41,-215.7C462.1,-207.3 453.18,-197.07 445.15,-187.86"/>
<polygon fill="grey" stroke="grey" stroke-width="2" points="447.6,-185.34 438.39,-180.1 442.33,-189.94 447.6,-185.34"/>
</g>
<!-- 8&#45;&gt;0 -->
<g id="edge3" class="edge">
<title>8&#45;&gt;0</title>
<path fill="none" stroke="grey" stroke-width="2" d="M254.95,-143.72C258.76,-125.63 265.43,-96.49 273.49,-72 276.35,-63.29 280,-54 283.5,-45.67"/>
<polygon fill="grey" stroke="grey" stroke-width="2" points="286.74,-46.98 287.48,-36.42 280.31,-44.22 286.74,-46.98"/>
</g>
<!-- 9&#45;&gt;8 -->
<g id="edge17" class="edge">
<title>9&#45;&gt;8</title>
<path fill="none" stroke="grey" stroke-width="2" d="M256.76,-215.7C255.99,-207.98 255.06,-198.71 254.2,-190.11"/>
<polygon fill="grey" stroke="grey" stroke-width="2" points="257.68,-189.71 253.2,-180.1 250.71,-190.4 257.68,-189.71"/>
</g>
<!-- 10&#45;&gt;0 -->
<g id="edge4" class="edge">
<title>10&#45;&gt;0</title>
<path fill="none" stroke="grey" stroke-width="2" d="M73.45,-143.86C103.41,-125.63 152.45,-96.16 195.49,-72 216.4,-60.26 240.1,-47.67 259.17,-37.71"/>
<polygon fill="grey" stroke="grey" stroke-width="2" points="260.88,-40.77 268.13,-33.05 257.65,-34.56 260.88,-40.77"/>
</g>
<!-- 11&#45;&gt;0 -->
<g id="edge5" class="edge">
<title>11&#45;&gt;0</title>
<path fill="none" stroke="grey" stroke-width="2" d="M557.19,-215.77C533.54,-183.7 478.71,-114.28 418.49,-72 391.95,-53.36 357.81,-39.3 332.24,-30.36"/>
<polygon fill="grey" stroke="grey" stroke-width="2" points="333.14,-26.97 322.55,-27.07 330.89,-33.6 333.14,-26.97"/>
</g>
<!-- 12&#45;&gt;0 -->
<g id="edge6" class="edge">
<title>12&#45;&gt;0</title>
<path fill="none" stroke="grey" stroke-width="2" d="M159.19,-143.87C186.65,-118.71 238.02,-71.65 269.25,-43.04"/>
<polygon fill="grey" stroke="grey" stroke-width="2" points="271.72,-45.53 276.73,-36.19 266.99,-40.36 271.72,-45.53"/>
</g>
</g>
</svg>
