<?xml version="1.0" encoding="UTF-8" standalone="no"?>
<!DOCTYPE svg PUBLIC "-//W3C//DTD SVG 1.1//EN"
 "http://www.w3.org/Graphics/SVG/1.1/DTD/svg11.dtd">
<!-- Generated by graphviz version 2.44.1 (20200629.0846)
 -->
<!-- Title: snakemake_dag Pages: 1 -->
<svg width="1455pt" height="332pt"
 viewBox="0.00 0.00 1455.41 332.00" xmlns="http://www.w3.org/2000/svg" xmlns:xlink="http://www.w3.org/1999/xlink">
<g id="graph0" class="graph" transform="scale(1 1) rotate(0) translate(4 328)">
<title>snakemake_dag</title>
<polygon fill="white" stroke="transparent" points="-4,4 -4,-328 1451.41,-328 1451.41,4 -4,4"/>
<!-- 0 -->
<g id="node1" class="node">
<title>0</title>
<path fill="none" stroke="#d8a456" stroke-width="2" d="M851.65,-36C851.65,-36 821.65,-36 821.65,-36 815.65,-36 809.65,-30 809.65,-24 809.65,-24 809.65,-12 809.65,-12 809.65,-6 815.65,0 821.65,0 821.65,0 851.65,0 851.65,0 857.65,0 863.65,-6 863.65,-12 863.65,-12 863.65,-24 863.65,-24 863.65,-30 857.65,-36 851.65,-36"/>
<text text-anchor="middle" x="836.65" y="-15" font-family="sans" font-size="10.00">all</text>
</g>
<!-- 1 -->
<g id="node2" class="node">
<title>1</title>
<path fill="none" stroke="#78d856" stroke-width="2" stroke-dasharray="5,2" d="M1361.78,-180C1361.78,-180 1293.52,-180 1293.52,-180 1287.52,-180 1281.52,-174 1281.52,-168 1281.52,-168 1281.52,-156 1281.52,-156 1281.52,-150 1287.52,-144 1293.52,-144 1293.52,-144 1361.78,-144 1361.78,-144 1367.78,-144 1373.78,-150 1373.78,-156 1373.78,-156 1373.78,-168 1373.78,-168 1373.78,-174 1367.78,-180 1361.78,-180"/>
<text text-anchor="middle" x="1327.65" y="-159" font-family="sans" font-size="10.00">effector_sensor_go</text>
</g>
<!-- 1&#45;&gt;0 -->
<g id="edge1" class="edge">
<title>1&#45;&gt;0</title>
<path fill="none" stroke="grey" stroke-width="2" d="M1326.08,-143.81C1323.21,-123.21 1315.15,-89.32 1292.65,-72 1227.43,-21.81 970.7,-18.11 873.88,-18.55"/>
<polygon fill="grey" stroke="grey" stroke-width="2" points="873.66,-15.05 863.68,-18.61 873.7,-22.05 873.66,-15.05"/>
</g>
<!-- 22 -->
<g id="node23" class="node">
<title>22</title>
<path fill="none" stroke="#56d87b" stroke-width="2" d="M879.65,-108C879.65,-108 849.65,-108 849.65,-108 843.65,-108 837.65,-102 837.65,-96 837.65,-96 837.65,-84 837.65,-84 837.65,-78 843.65,-72 849.65,-72 849.65,-72 879.65,-72 879.65,-72 885.65,-72 891.65,-78 891.65,-84 891.65,-84 891.65,-96 891.65,-96 891.65,-102 885.65,-108 879.65,-108"/>
<text text-anchor="middle" x="864.65" y="-87" font-family="sans" font-size="10.00">figs3s4</text>
</g>
<!-- 1&#45;&gt;22 -->
<g id="edge38" class="edge">
<title>1&#45;&gt;22</title>
<path fill="none" stroke="grey" stroke-width="2" d="M1281.35,-152.17C1266.46,-149.43 1249.88,-146.48 1234.65,-144 1113.36,-124.24 969.05,-104.71 902.15,-95.89"/>
<polygon fill="grey" stroke="grey" stroke-width="2" points="902.46,-92.4 892.09,-94.56 901.55,-99.34 902.46,-92.4"/>
</g>
<!-- 2 -->
<g id="node3" class="node">
<title>2</title>
<path fill="none" stroke="#56a2d8" stroke-width="2" stroke-dasharray="5,2" d="M1435.17,-252C1435.17,-252 1368.13,-252 1368.13,-252 1362.13,-252 1356.13,-246 1356.13,-240 1356.13,-240 1356.13,-228 1356.13,-228 1356.13,-222 1362.13,-216 1368.13,-216 1368.13,-216 1435.17,-216 1435.17,-216 1441.17,-216 1447.17,-222 1447.17,-228 1447.17,-228 1447.17,-240 1447.17,-240 1447.17,-246 1441.17,-252 1435.17,-252"/>
<text text-anchor="middle" x="1401.65" y="-231" font-family="sans" font-size="10.00">create_enm_object</text>
</g>
<!-- 2&#45;&gt;1 -->
<g id="edge17" class="edge">
<title>2&#45;&gt;1</title>
<path fill="none" stroke="grey" stroke-width="2" d="M1383.36,-215.7C1374.22,-207.05 1363.01,-196.45 1353.05,-187.03"/>
<polygon fill="grey" stroke="grey" stroke-width="2" points="1355.4,-184.43 1345.73,-180.1 1350.59,-189.52 1355.4,-184.43"/>
</g>
<!-- 23 -->
<g id="node24" class="node">
<title>23</title>
<path fill="none" stroke="#d85656" stroke-width="2" stroke-dasharray="5,2" d="M1422.45,-108C1422.45,-108 1366.85,-108 1366.85,-108 1360.85,-108 1354.85,-102 1354.85,-96 1354.85,-96 1354.85,-84 1354.85,-84 1354.85,-78 1360.85,-72 1366.85,-72 1366.85,-72 1422.45,-72 1422.45,-72 1428.45,-72 1434.45,-78 1434.45,-84 1434.45,-84 1434.45,-96 1434.45,-96 1434.45,-102 1428.45,-108 1422.45,-108"/>
<text text-anchor="middle" x="1394.65" y="-93" font-family="sans" font-size="10.00">rewire_network</text>
<text text-anchor="middle" x="1394.65" y="-81" font-family="sans" font-size="10.00">N_SIM: 10</text>
</g>
<!-- 2&#45;&gt;23 -->
<g id="edge45" class="edge">
<title>2&#45;&gt;23</title>
<path fill="none" stroke="grey" stroke-width="2" d="M1400.81,-215.87C1399.61,-191.67 1397.42,-147.21 1396,-118.39"/>
<polygon fill="grey" stroke="grey" stroke-width="2" points="1399.49,-118 1395.5,-108.19 1392.49,-118.35 1399.49,-118"/>
</g>
<!-- 3 -->
<g id="node4" class="node">
<title>3</title>
<path fill="none" stroke="#c6d856" stroke-width="2" stroke-dasharray="5,2" d="M1391,-324C1391,-324 1320.3,-324 1320.3,-324 1314.3,-324 1308.3,-318 1308.3,-312 1308.3,-312 1308.3,-300 1308.3,-300 1308.3,-294 1314.3,-288 1320.3,-288 1320.3,-288 1391,-288 1391,-288 1397,-288 1403,-294 1403,-300 1403,-300 1403,-312 1403,-312 1403,-318 1397,-324 1391,-324"/>
<text text-anchor="middle" x="1355.65" y="-309" font-family="sans" font-size="10.00">read_costanzo_data</text>
<text text-anchor="middle" x="1355.65" y="-297" font-family="sans" font-size="10.00">thr: 0.05</text>
</g>
<!-- 3&#45;&gt;1 -->
<g id="edge18" class="edge">
<title>3&#45;&gt;1</title>
<path fill="none" stroke="grey" stroke-width="2" d="M1352.27,-287.87C1347.48,-263.56 1338.66,-218.82 1332.98,-190.01"/>
<polygon fill="grey" stroke="grey" stroke-width="2" points="1336.41,-189.32 1331.04,-180.19 1329.54,-190.68 1336.41,-189.32"/>
</g>
<!-- 3&#45;&gt;2 -->
<g id="edge19" class="edge">
<title>3&#45;&gt;2</title>
<path fill="none" stroke="grey" stroke-width="2" d="M1367.02,-287.7C1372.37,-279.56 1378.85,-269.69 1384.76,-260.7"/>
<polygon fill="grey" stroke="grey" stroke-width="2" points="1387.84,-262.38 1390.41,-252.1 1381.99,-258.54 1387.84,-262.38"/>
</g>
<!-- 4 -->
<g id="node5" class="node">
<title>4</title>
<path fill="none" stroke="#78d856" stroke-width="2" stroke-dasharray="5,2" d="M954.78,-180C954.78,-180 886.52,-180 886.52,-180 880.52,-180 874.52,-174 874.52,-168 874.52,-168 874.52,-156 874.52,-156 874.52,-150 880.52,-144 886.52,-144 886.52,-144 954.78,-144 954.78,-144 960.78,-144 966.78,-150 966.78,-156 966.78,-156 966.78,-168 966.78,-168 966.78,-174 960.78,-180 954.78,-180"/>
<text text-anchor="middle" x="920.65" y="-159" font-family="sans" font-size="10.00">effector_sensor_go</text>
</g>
<!-- 4&#45;&gt;0 -->
<g id="edge2" class="edge">
<title>4&#45;&gt;0</title>
<path fill="none" stroke="grey" stroke-width="2" d="M920.04,-143.7C918.67,-124.81 914.31,-94.28 900.65,-72 893.38,-60.14 882.5,-49.7 871.77,-41.28"/>
<polygon fill="grey" stroke="grey" stroke-width="2" points="873.77,-38.41 863.66,-35.26 869.6,-44.03 873.77,-38.41"/>
</g>
<!-- 4&#45;&gt;22 -->
<g id="edge39" class="edge">
<title>4&#45;&gt;22</title>
<path fill="none" stroke="grey" stroke-width="2" d="M906.81,-143.7C900.16,-135.39 892.07,-125.28 884.76,-116.14"/>
<polygon fill="grey" stroke="grey" stroke-width="2" points="887.31,-113.73 878.33,-108.1 881.85,-118.1 887.31,-113.73"/>
</g>
<!-- 5 -->
<g id="node6" class="node">
<title>5</title>
<path fill="none" stroke="#56a2d8" stroke-width="2" stroke-dasharray="5,2" d="M871.17,-252C871.17,-252 804.13,-252 804.13,-252 798.13,-252 792.13,-246 792.13,-240 792.13,-240 792.13,-228 792.13,-228 792.13,-222 798.13,-216 804.13,-216 804.13,-216 871.17,-216 871.17,-216 877.17,-216 883.17,-222 883.17,-228 883.17,-228 883.17,-240 883.17,-240 883.17,-246 877.17,-252 871.17,-252"/>
<text text-anchor="middle" x="837.65" y="-231" font-family="sans" font-size="10.00">create_enm_object</text>
</g>
<!-- 5&#45;&gt;4 -->
<g id="edge20" class="edge">
<title>5&#45;&gt;4</title>
<path fill="none" stroke="grey" stroke-width="2" d="M858.17,-215.7C868.52,-206.97 881.24,-196.24 892.49,-186.75"/>
<polygon fill="grey" stroke="grey" stroke-width="2" points="894.98,-189.23 900.37,-180.1 890.47,-183.88 894.98,-189.23"/>
</g>
<!-- 24 -->
<g id="node25" class="node">
<title>24</title>
<path fill="none" stroke="#d85656" stroke-width="2" stroke-dasharray="5,2" d="M622.45,-180C622.45,-180 566.85,-180 566.85,-180 560.85,-180 554.85,-174 554.85,-168 554.85,-168 554.85,-156 554.85,-156 554.85,-150 560.85,-144 566.85,-144 566.85,-144 622.45,-144 622.45,-144 628.45,-144 634.45,-150 634.45,-156 634.45,-156 634.45,-168 634.45,-168 634.45,-174 628.45,-180 622.45,-180"/>
<text text-anchor="middle" x="594.65" y="-165" font-family="sans" font-size="10.00">rewire_network</text>
<text text-anchor="middle" x="594.65" y="-153" font-family="sans" font-size="10.00">N_SIM: 10</text>
</g>
<!-- 5&#45;&gt;24 -->
<g id="edge46" class="edge">
<title>5&#45;&gt;24</title>
<path fill="none" stroke="grey" stroke-width="2" d="M791.93,-221.44C754.62,-211.79 700.35,-197.29 644.19,-180.07"/>
<polygon fill="grey" stroke="grey" stroke-width="2" points="645.01,-176.66 634.42,-177.05 642.94,-183.35 645.01,-176.66"/>
</g>
<!-- 30 -->
<g id="node31" class="node">
<title>30</title>
<path fill="none" stroke="#56d8c9" stroke-width="2" stroke-dasharray="5,2" d="M406.65,-108C406.65,-108 376.65,-108 376.65,-108 370.65,-108 364.65,-102 364.65,-96 364.65,-96 364.65,-84 364.65,-84 364.65,-78 370.65,-72 376.65,-72 376.65,-72 406.65,-72 406.65,-72 412.65,-72 418.65,-78 418.65,-84 418.65,-84 418.65,-96 418.65,-96 418.65,-102 412.65,-108 406.65,-108"/>
<text text-anchor="middle" x="391.65" y="-87" font-family="sans" font-size="10.00">figs1</text>
</g>
<!-- 5&#45;&gt;30 -->
<g id="edge52" class="edge">
<title>5&#45;&gt;30</title>
<path fill="none" stroke="grey" stroke-width="2" d="M792,-227.03C690.01,-213.66 452.26,-182.3 448.65,-180 436.55,-172.28 417.95,-140.75 405.32,-117.41"/>
<polygon fill="grey" stroke="grey" stroke-width="2" points="408.26,-115.48 400.47,-108.3 402.08,-118.78 408.26,-115.48"/>
</g>
<!-- 6 -->
<g id="node7" class="node">
<title>6</title>
<path fill="none" stroke="#c6d856" stroke-width="2" stroke-dasharray="5,2" d="M936,-324C936,-324 865.3,-324 865.3,-324 859.3,-324 853.3,-318 853.3,-312 853.3,-312 853.3,-300 853.3,-300 853.3,-294 859.3,-288 865.3,-288 865.3,-288 936,-288 936,-288 942,-288 948,-294 948,-300 948,-300 948,-312 948,-312 948,-318 942,-324 936,-324"/>
<text text-anchor="middle" x="900.65" y="-309" font-family="sans" font-size="10.00">read_costanzo_data</text>
<text text-anchor="middle" x="900.65" y="-297" font-family="sans" font-size="10.00">thr: 0.1</text>
</g>
<!-- 6&#45;&gt;4 -->
<g id="edge21" class="edge">
<title>6&#45;&gt;4</title>
<path fill="none" stroke="grey" stroke-width="2" d="M903.06,-287.87C906.47,-263.67 912.73,-219.21 916.79,-190.39"/>
<polygon fill="grey" stroke="grey" stroke-width="2" points="920.3,-190.58 918.23,-180.19 913.37,-189.6 920.3,-190.58"/>
</g>
<!-- 6&#45;&gt;5 -->
<g id="edge22" class="edge">
<title>6&#45;&gt;5</title>
<path fill="none" stroke="grey" stroke-width="2" d="M885.08,-287.7C877.45,-279.22 868.13,-268.86 859.77,-259.58"/>
<polygon fill="grey" stroke="grey" stroke-width="2" points="862.34,-257.2 853.04,-252.1 857.13,-261.88 862.34,-257.2"/>
</g>
<!-- 7 -->
<g id="node8" class="node">
<title>7</title>
<path fill="none" stroke="#78d856" stroke-width="2" stroke-dasharray="5,2" d="M215.78,-180C215.78,-180 147.52,-180 147.52,-180 141.52,-180 135.52,-174 135.52,-168 135.52,-168 135.52,-156 135.52,-156 135.52,-150 141.52,-144 147.52,-144 147.52,-144 215.78,-144 215.78,-144 221.78,-144 227.78,-150 227.78,-156 227.78,-156 227.78,-168 227.78,-168 227.78,-174 221.78,-180 215.78,-180"/>
<text text-anchor="middle" x="181.65" y="-159" font-family="sans" font-size="10.00">effector_sensor_go</text>
</g>
<!-- 7&#45;&gt;0 -->
<g id="edge3" class="edge">
<title>7&#45;&gt;0</title>
<path fill="none" stroke="grey" stroke-width="2" d="M200.52,-143.77C224.73,-122.79 268.95,-88.17 313.65,-72 403.36,-39.55 695.36,-24.75 799.41,-20.42"/>
<polygon fill="grey" stroke="grey" stroke-width="2" points="799.6,-23.91 809.45,-20.01 799.31,-16.92 799.6,-23.91"/>
</g>
<!-- 7&#45;&gt;22 -->
<g id="edge40" class="edge">
<title>7&#45;&gt;22</title>
<path fill="none" stroke="grey" stroke-width="2" d="M227.98,-145.91C230.9,-145.2 233.8,-144.55 236.65,-144 457.67,-101.04 729.16,-92.9 827.15,-91.36"/>
<polygon fill="grey" stroke="grey" stroke-width="2" points="827.48,-94.85 837.43,-91.21 827.38,-87.86 827.48,-94.85"/>
</g>
<!-- 8 -->
<g id="node9" class="node">
<title>8</title>
<path fill="none" stroke="#56a2d8" stroke-width="2" stroke-dasharray="5,2" d="M141.17,-252C141.17,-252 74.13,-252 74.13,-252 68.13,-252 62.13,-246 62.13,-240 62.13,-240 62.13,-228 62.13,-228 62.13,-222 68.13,-216 74.13,-216 74.13,-216 141.17,-216 141.17,-216 147.17,-216 153.17,-222 153.17,-228 153.17,-228 153.17,-240 153.17,-240 153.17,-246 147.17,-252 141.17,-252"/>
<text text-anchor="middle" x="107.65" y="-231" font-family="sans" font-size="10.00">create_enm_object</text>
</g>
<!-- 8&#45;&gt;7 -->
<g id="edge23" class="edge">
<title>8&#45;&gt;7</title>
<path fill="none" stroke="grey" stroke-width="2" d="M125.94,-215.7C135.08,-207.05 146.29,-196.45 156.25,-187.03"/>
<polygon fill="grey" stroke="grey" stroke-width="2" points="158.71,-189.52 163.57,-180.1 153.9,-184.43 158.71,-189.52"/>
</g>
<!-- 25 -->
<g id="node26" class="node">
<title>25</title>
<path fill="none" stroke="#d85656" stroke-width="2" stroke-dasharray="5,2" d="M67.45,-180C67.45,-180 11.85,-180 11.85,-180 5.85,-180 -0.15,-174 -0.15,-168 -0.15,-168 -0.15,-156 -0.15,-156 -0.15,-150 5.85,-144 11.85,-144 11.85,-144 67.45,-144 67.45,-144 73.45,-144 79.45,-150 79.45,-156 79.45,-156 79.45,-168 79.45,-168 79.45,-174 73.45,-180 67.45,-180"/>
<text text-anchor="middle" x="39.65" y="-165" font-family="sans" font-size="10.00">rewire_network</text>
<text text-anchor="middle" x="39.65" y="-153" font-family="sans" font-size="10.00">N_SIM: 10</text>
</g>
<!-- 8&#45;&gt;25 -->
<g id="edge47" class="edge">
<title>8&#45;&gt;25</title>
<path fill="none" stroke="grey" stroke-width="2" d="M90.84,-215.7C82.52,-207.14 72.34,-196.66 63.26,-187.3"/>
<polygon fill="grey" stroke="grey" stroke-width="2" points="65.74,-184.84 56.27,-180.1 60.72,-189.72 65.74,-184.84"/>
</g>
<!-- 8&#45;&gt;30 -->
<g id="edge53" class="edge">
<title>8&#45;&gt;30</title>
<path fill="none" stroke="grey" stroke-width="2" d="M106.16,-215.65C105.45,-195.54 107.65,-162.76 126.65,-144 158.36,-112.7 288.88,-98.67 354.14,-93.51"/>
<polygon fill="grey" stroke="grey" stroke-width="2" points="354.7,-96.98 364.4,-92.73 354.17,-90 354.7,-96.98"/>
</g>
<!-- 9 -->
<g id="node10" class="node">
<title>9</title>
<path fill="none" stroke="#c6d856" stroke-width="2" stroke-dasharray="5,2" d="M180,-324C180,-324 109.3,-324 109.3,-324 103.3,-324 97.3,-318 97.3,-312 97.3,-312 97.3,-300 97.3,-300 97.3,-294 103.3,-288 109.3,-288 109.3,-288 180,-288 180,-288 186,-288 192,-294 192,-300 192,-300 192,-312 192,-312 192,-318 186,-324 180,-324"/>
<text text-anchor="middle" x="144.65" y="-309" font-family="sans" font-size="10.00">read_costanzo_data</text>
<text text-anchor="middle" x="144.65" y="-297" font-family="sans" font-size="10.00">thr: 0.2</text>
</g>
<!-- 9&#45;&gt;7 -->
<g id="edge24" class="edge">
<title>9&#45;&gt;7</title>
<path fill="none" stroke="grey" stroke-width="2" d="M151,-287.97C154.7,-277.66 159.29,-264.18 162.65,-252 168.28,-231.57 173.23,-208.11 176.66,-190.4"/>
<polygon fill="grey" stroke="grey" stroke-width="2" points="180.17,-190.68 178.6,-180.21 173.29,-189.38 180.17,-190.68"/>
</g>
<!-- 9&#45;&gt;8 -->
<g id="edge25" class="edge">
<title>9&#45;&gt;8</title>
<path fill="none" stroke="grey" stroke-width="2" d="M135.5,-287.7C131.25,-279.64 126.09,-269.89 121.38,-260.98"/>
<polygon fill="grey" stroke="grey" stroke-width="2" points="124.46,-259.31 116.69,-252.1 118.27,-262.58 124.46,-259.31"/>
</g>
<!-- 10 -->
<g id="node11" class="node">
<title>10</title>
<path fill="none" stroke="#78d856" stroke-width="2" stroke-dasharray="5,2" d="M1065.78,-180C1065.78,-180 997.52,-180 997.52,-180 991.52,-180 985.52,-174 985.52,-168 985.52,-168 985.52,-156 985.52,-156 985.52,-150 991.52,-144 997.52,-144 997.52,-144 1065.78,-144 1065.78,-144 1071.78,-144 1077.78,-150 1077.78,-156 1077.78,-156 1077.78,-168 1077.78,-168 1077.78,-174 1071.78,-180 1065.78,-180"/>
<text text-anchor="middle" x="1031.65" y="-159" font-family="sans" font-size="10.00">effector_sensor_go</text>
</g>
<!-- 10&#45;&gt;0 -->
<g id="edge4" class="edge">
<title>10&#45;&gt;0</title>
<path fill="none" stroke="grey" stroke-width="2" d="M1011.96,-143.83C990.38,-125.32 954.46,-95.37 921.65,-72 906.02,-60.87 888.07,-49.49 872.71,-40.14"/>
<polygon fill="grey" stroke="grey" stroke-width="2" points="874.37,-37.05 864,-34.88 870.75,-43.05 874.37,-37.05"/>
</g>
<!-- 10&#45;&gt;22 -->
<g id="edge41" class="edge">
<title>10&#45;&gt;22</title>
<path fill="none" stroke="grey" stroke-width="2" d="M990.8,-143.88C963.36,-132.38 927.53,-117.36 901.07,-106.27"/>
<polygon fill="grey" stroke="grey" stroke-width="2" points="902.36,-103.01 891.78,-102.37 899.65,-109.47 902.36,-103.01"/>
</g>
<!-- 11 -->
<g id="node12" class="node">
<title>11</title>
<path fill="none" stroke="#56a2d8" stroke-width="2" stroke-dasharray="5,2" d="M1139.17,-252C1139.17,-252 1072.13,-252 1072.13,-252 1066.13,-252 1060.13,-246 1060.13,-240 1060.13,-240 1060.13,-228 1060.13,-228 1060.13,-222 1066.13,-216 1072.13,-216 1072.13,-216 1139.17,-216 1139.17,-216 1145.17,-216 1151.17,-222 1151.17,-228 1151.17,-228 1151.17,-240 1151.17,-240 1151.17,-246 1145.17,-252 1139.17,-252"/>
<text text-anchor="middle" x="1105.65" y="-231" font-family="sans" font-size="10.00">create_enm_object</text>
</g>
<!-- 11&#45;&gt;10 -->
<g id="edge26" class="edge">
<title>11&#45;&gt;10</title>
<path fill="none" stroke="grey" stroke-width="2" d="M1087.36,-215.7C1078.22,-207.05 1067.01,-196.45 1057.05,-187.03"/>
<polygon fill="grey" stroke="grey" stroke-width="2" points="1059.4,-184.43 1049.73,-180.1 1054.59,-189.52 1059.4,-184.43"/>
</g>
<!-- 26 -->
<g id="node27" class="node">
<title>26</title>
<path fill="none" stroke="#d85656" stroke-width="2" d="M1111.45,-108C1111.45,-108 1055.85,-108 1055.85,-108 1049.85,-108 1043.85,-102 1043.85,-96 1043.85,-96 1043.85,-84 1043.85,-84 1043.85,-78 1049.85,-72 1055.85,-72 1055.85,-72 1111.45,-72 1111.45,-72 1117.45,-72 1123.45,-78 1123.45,-84 1123.45,-84 1123.45,-96 1123.45,-96 1123.45,-102 1117.45,-108 1111.45,-108"/>
<text text-anchor="middle" x="1083.65" y="-93" font-family="sans" font-size="10.00">rewire_network</text>
<text text-anchor="middle" x="1083.65" y="-81" font-family="sans" font-size="10.00">N_SIM: 10</text>
</g>
<!-- 11&#45;&gt;26 -->
<g id="edge48" class="edge">
<title>11&#45;&gt;26</title>
<path fill="none" stroke="grey" stroke-width="2" d="M1103,-215.87C1099.25,-191.67 1092.36,-147.21 1087.89,-118.39"/>
<polygon fill="grey" stroke="grey" stroke-width="2" points="1091.3,-117.54 1086.31,-108.19 1084.39,-118.61 1091.3,-117.54"/>
</g>
<!-- 12 -->
<g id="node13" class="node">
<title>12</title>
<path fill="none" stroke="#c6d856" stroke-width="2" stroke-dasharray="5,2" d="M1113,-324C1113,-324 1042.3,-324 1042.3,-324 1036.3,-324 1030.3,-318 1030.3,-312 1030.3,-312 1030.3,-300 1030.3,-300 1030.3,-294 1036.3,-288 1042.3,-288 1042.3,-288 1113,-288 1113,-288 1119,-288 1125,-294 1125,-300 1125,-300 1125,-312 1125,-312 1125,-318 1119,-324 1113,-324"/>
<text text-anchor="middle" x="1077.65" y="-309" font-family="sans" font-size="10.00">read_costanzo_data</text>
<text text-anchor="middle" x="1077.65" y="-297" font-family="sans" font-size="10.00">thr: 0.25</text>
</g>
<!-- 12&#45;&gt;10 -->
<g id="edge27" class="edge">
<title>12&#45;&gt;10</title>
<path fill="none" stroke="grey" stroke-width="2" d="M1067.46,-287.84C1061.82,-277.71 1055.07,-264.46 1050.65,-252 1043.49,-231.8 1038.58,-208.03 1035.55,-190.13"/>
<polygon fill="grey" stroke="grey" stroke-width="2" points="1038.98,-189.41 1033.94,-180.09 1032.07,-190.52 1038.98,-189.41"/>
</g>
<!-- 12&#45;&gt;11 -->
<g id="edge28" class="edge">
<title>12&#45;&gt;11</title>
<path fill="none" stroke="grey" stroke-width="2" d="M1084.57,-287.7C1087.72,-279.81 1091.53,-270.3 1095.03,-261.55"/>
<polygon fill="grey" stroke="grey" stroke-width="2" points="1098.34,-262.69 1098.81,-252.1 1091.84,-260.09 1098.34,-262.69"/>
</g>
<!-- 13 -->
<g id="node14" class="node">
<title>13</title>
<path fill="none" stroke="#78d856" stroke-width="2" stroke-dasharray="5,2" d="M732.78,-180C732.78,-180 664.52,-180 664.52,-180 658.52,-180 652.52,-174 652.52,-168 652.52,-168 652.52,-156 652.52,-156 652.52,-150 658.52,-144 664.52,-144 664.52,-144 732.78,-144 732.78,-144 738.78,-144 744.78,-150 744.78,-156 744.78,-156 744.78,-168 744.78,-168 744.78,-174 738.78,-180 732.78,-180"/>
<text text-anchor="middle" x="698.65" y="-159" font-family="sans" font-size="10.00">effector_sensor_go</text>
</g>
<!-- 13&#45;&gt;0 -->
<g id="edge5" class="edge">
<title>13&#45;&gt;0</title>
<path fill="none" stroke="grey" stroke-width="2" d="M715.3,-143.87C739.64,-118.82 785.09,-72.05 812.93,-43.41"/>
<polygon fill="grey" stroke="grey" stroke-width="2" points="815.49,-45.8 819.94,-36.19 810.47,-40.92 815.49,-45.8"/>
</g>
<!-- 13&#45;&gt;22 -->
<g id="edge42" class="edge">
<title>13&#45;&gt;22</title>
<path fill="none" stroke="grey" stroke-width="2" d="M739.26,-143.88C766.44,-132.41 801.92,-117.45 828.2,-106.37"/>
<polygon fill="grey" stroke="grey" stroke-width="2" points="829.58,-109.59 837.43,-102.48 826.86,-103.14 829.58,-109.59"/>
</g>
<!-- 14 -->
<g id="node15" class="node">
<title>14</title>
<path fill="none" stroke="#56a2d8" stroke-width="2" stroke-dasharray="5,2" d="M391.17,-252C391.17,-252 324.13,-252 324.13,-252 318.13,-252 312.13,-246 312.13,-240 312.13,-240 312.13,-228 312.13,-228 312.13,-222 318.13,-216 324.13,-216 324.13,-216 391.17,-216 391.17,-216 397.17,-216 403.17,-222 403.17,-228 403.17,-228 403.17,-240 403.17,-240 403.17,-246 397.17,-252 391.17,-252"/>
<text text-anchor="middle" x="357.65" y="-231" font-family="sans" font-size="10.00">create_enm_object</text>
</g>
<!-- 14&#45;&gt;13 -->
<g id="edge29" class="edge">
<title>14&#45;&gt;13</title>
<path fill="none" stroke="grey" stroke-width="2" d="M403.57,-226.18C458.37,-217.67 552.86,-201.82 642.47,-180.15"/>
<polygon fill="grey" stroke="grey" stroke-width="2" points="643.36,-183.54 652.25,-177.76 641.7,-176.74 643.36,-183.54"/>
</g>
<!-- 27 -->
<g id="node28" class="node">
<title>27</title>
<path fill="none" stroke="#d85656" stroke-width="2" stroke-dasharray="5,2" d="M313.45,-180C313.45,-180 257.85,-180 257.85,-180 251.85,-180 245.85,-174 245.85,-168 245.85,-168 245.85,-156 245.85,-156 245.85,-150 251.85,-144 257.85,-144 257.85,-144 313.45,-144 313.45,-144 319.45,-144 325.45,-150 325.45,-156 325.45,-156 325.45,-168 325.45,-168 325.45,-174 319.45,-180 313.45,-180"/>
<text text-anchor="middle" x="285.65" y="-165" font-family="sans" font-size="10.00">rewire_network</text>
<text text-anchor="middle" x="285.65" y="-153" font-family="sans" font-size="10.00">N_SIM: 10</text>
</g>
<!-- 14&#45;&gt;27 -->
<g id="edge49" class="edge">
<title>14&#45;&gt;27</title>
<path fill="none" stroke="grey" stroke-width="2" d="M339.85,-215.7C331.05,-207.14 320.27,-196.66 310.65,-187.3"/>
<polygon fill="grey" stroke="grey" stroke-width="2" points="312.85,-184.57 303.24,-180.1 307.97,-189.58 312.85,-184.57"/>
</g>
<!-- 14&#45;&gt;30 -->
<g id="edge54" class="edge">
<title>14&#45;&gt;30</title>
<path fill="none" stroke="grey" stroke-width="2" d="M361.3,-215.89C365.17,-197.94 371.56,-168.92 377.65,-144 379.71,-135.55 382.09,-126.38 384.29,-118.07"/>
<polygon fill="grey" stroke="grey" stroke-width="2" points="387.74,-118.71 386.95,-108.14 380.98,-116.9 387.74,-118.71"/>
</g>
<!-- 15 -->
<g id="node16" class="node">
<title>15</title>
<path fill="none" stroke="#c6d856" stroke-width="2" stroke-dasharray="5,2" d="M479,-324C479,-324 408.3,-324 408.3,-324 402.3,-324 396.3,-318 396.3,-312 396.3,-312 396.3,-300 396.3,-300 396.3,-294 402.3,-288 408.3,-288 408.3,-288 479,-288 479,-288 485,-288 491,-294 491,-300 491,-300 491,-312 491,-312 491,-318 485,-324 479,-324"/>
<text text-anchor="middle" x="443.65" y="-309" font-family="sans" font-size="10.00">read_costanzo_data</text>
<text text-anchor="middle" x="443.65" y="-297" font-family="sans" font-size="10.00">thr: 0.3</text>
</g>
<!-- 15&#45;&gt;13 -->
<g id="edge30" class="edge">
<title>15&#45;&gt;13</title>
<path fill="none" stroke="grey" stroke-width="2" d="M472.4,-287.91C503.19,-269.73 553.57,-240.29 597.65,-216 616.7,-205.5 638,-194.25 656.11,-184.83"/>
<polygon fill="grey" stroke="grey" stroke-width="2" points="658,-187.8 665.26,-180.09 654.77,-181.58 658,-187.8"/>
</g>
<!-- 15&#45;&gt;14 -->
<g id="edge31" class="edge">
<title>15&#45;&gt;14</title>
<path fill="none" stroke="grey" stroke-width="2" d="M422.39,-287.7C411.56,-278.88 398.23,-268.03 386.49,-258.47"/>
<polygon fill="grey" stroke="grey" stroke-width="2" points="388.63,-255.7 378.66,-252.1 384.21,-261.13 388.63,-255.7"/>
</g>
<!-- 16 -->
<g id="node17" class="node">
<title>16</title>
<path fill="none" stroke="#78d856" stroke-width="2" stroke-dasharray="5,2" d="M1213.78,-180C1213.78,-180 1145.52,-180 1145.52,-180 1139.52,-180 1133.52,-174 1133.52,-168 1133.52,-168 1133.52,-156 1133.52,-156 1133.52,-150 1139.52,-144 1145.52,-144 1145.52,-144 1213.78,-144 1213.78,-144 1219.78,-144 1225.78,-150 1225.78,-156 1225.78,-156 1225.78,-168 1225.78,-168 1225.78,-174 1219.78,-180 1213.78,-180"/>
<text text-anchor="middle" x="1179.65" y="-159" font-family="sans" font-size="10.00">effector_sensor_go</text>
</g>
<!-- 16&#45;&gt;0 -->
<g id="edge6" class="edge">
<title>16&#45;&gt;0</title>
<path fill="none" stroke="grey" stroke-width="2" d="M1175.53,-143.91C1169.64,-123.42 1156.78,-89.63 1132.65,-72 1091.96,-42.26 944.26,-27.23 874.12,-21.64"/>
<polygon fill="grey" stroke="grey" stroke-width="2" points="874.2,-18.14 863.96,-20.85 873.66,-25.12 874.2,-18.14"/>
</g>
<!-- 16&#45;&gt;22 -->
<g id="edge43" class="edge">
<title>16&#45;&gt;22</title>
<path fill="none" stroke="grey" stroke-width="2" d="M1133.51,-150.75C1070.64,-136.78 959.3,-112.03 901.61,-99.21"/>
<polygon fill="grey" stroke="grey" stroke-width="2" points="902.34,-95.79 891.82,-97.04 900.82,-102.62 902.34,-95.79"/>
</g>
<!-- 17 -->
<g id="node18" class="node">
<title>17</title>
<path fill="none" stroke="#56a2d8" stroke-width="2" stroke-dasharray="5,2" d="M1287.17,-252C1287.17,-252 1220.13,-252 1220.13,-252 1214.13,-252 1208.13,-246 1208.13,-240 1208.13,-240 1208.13,-228 1208.13,-228 1208.13,-222 1214.13,-216 1220.13,-216 1220.13,-216 1287.17,-216 1287.17,-216 1293.17,-216 1299.17,-222 1299.17,-228 1299.17,-228 1299.17,-240 1299.17,-240 1299.17,-246 1293.17,-252 1287.17,-252"/>
<text text-anchor="middle" x="1253.65" y="-231" font-family="sans" font-size="10.00">create_enm_object</text>
</g>
<!-- 17&#45;&gt;16 -->
<g id="edge32" class="edge">
<title>17&#45;&gt;16</title>
<path fill="none" stroke="grey" stroke-width="2" d="M1235.36,-215.7C1226.22,-207.05 1215.01,-196.45 1205.05,-187.03"/>
<polygon fill="grey" stroke="grey" stroke-width="2" points="1207.4,-184.43 1197.73,-180.1 1202.59,-189.52 1207.4,-184.43"/>
</g>
<!-- 28 -->
<g id="node29" class="node">
<title>28</title>
<path fill="none" stroke="#d85656" stroke-width="2" d="M1271.45,-108C1271.45,-108 1215.85,-108 1215.85,-108 1209.85,-108 1203.85,-102 1203.85,-96 1203.85,-96 1203.85,-84 1203.85,-84 1203.85,-78 1209.85,-72 1215.85,-72 1215.85,-72 1271.45,-72 1271.45,-72 1277.45,-72 1283.45,-78 1283.45,-84 1283.45,-84 1283.45,-96 1283.45,-96 1283.45,-102 1277.45,-108 1271.45,-108"/>
<text text-anchor="middle" x="1243.65" y="-93" font-family="sans" font-size="10.00">rewire_network</text>
<text text-anchor="middle" x="1243.65" y="-81" font-family="sans" font-size="10.00">N_SIM: 10</text>
</g>
<!-- 17&#45;&gt;28 -->
<g id="edge50" class="edge">
<title>17&#45;&gt;28</title>
<path fill="none" stroke="grey" stroke-width="2" d="M1252.44,-215.87C1250.74,-191.67 1247.61,-147.21 1245.58,-118.39"/>
<polygon fill="grey" stroke="grey" stroke-width="2" points="1249.05,-117.92 1244.86,-108.19 1242.07,-118.41 1249.05,-117.92"/>
</g>
<!-- 18 -->
<g id="node19" class="node">
<title>18</title>
<path fill="none" stroke="#c6d856" stroke-width="2" stroke-dasharray="5,2" d="M1261,-324C1261,-324 1190.3,-324 1190.3,-324 1184.3,-324 1178.3,-318 1178.3,-312 1178.3,-312 1178.3,-300 1178.3,-300 1178.3,-294 1184.3,-288 1190.3,-288 1190.3,-288 1261,-288 1261,-288 1267,-288 1273,-294 1273,-300 1273,-300 1273,-312 1273,-312 1273,-318 1267,-324 1261,-324"/>
<text text-anchor="middle" x="1225.65" y="-309" font-family="sans" font-size="10.00">read_costanzo_data</text>
<text text-anchor="middle" x="1225.65" y="-297" font-family="sans" font-size="10.00">thr: 0.35</text>
</g>
<!-- 18&#45;&gt;16 -->
<g id="edge33" class="edge">
<title>18&#45;&gt;16</title>
<path fill="none" stroke="grey" stroke-width="2" d="M1215.46,-287.84C1209.82,-277.71 1203.07,-264.46 1198.65,-252 1191.49,-231.8 1186.58,-208.03 1183.55,-190.13"/>
<polygon fill="grey" stroke="grey" stroke-width="2" points="1186.98,-189.41 1181.94,-180.09 1180.07,-190.52 1186.98,-189.41"/>
</g>
<!-- 18&#45;&gt;17 -->
<g id="edge34" class="edge">
<title>18&#45;&gt;17</title>
<path fill="none" stroke="grey" stroke-width="2" d="M1232.57,-287.7C1235.72,-279.81 1239.53,-270.3 1243.03,-261.55"/>
<polygon fill="grey" stroke="grey" stroke-width="2" points="1246.34,-262.69 1246.81,-252.1 1239.84,-260.09 1246.34,-262.69"/>
</g>
<!-- 19 -->
<g id="node20" class="node">
<title>19</title>
<path fill="none" stroke="#78d856" stroke-width="2" stroke-dasharray="5,2" d="M843.78,-180C843.78,-180 775.52,-180 775.52,-180 769.52,-180 763.52,-174 763.52,-168 763.52,-168 763.52,-156 763.52,-156 763.52,-150 769.52,-144 775.52,-144 775.52,-144 843.78,-144 843.78,-144 849.78,-144 855.78,-150 855.78,-156 855.78,-156 855.78,-168 855.78,-168 855.78,-174 849.78,-180 843.78,-180"/>
<text text-anchor="middle" x="809.65" y="-159" font-family="sans" font-size="10.00">effector_sensor_go</text>
</g>
<!-- 19&#45;&gt;0 -->
<g id="edge7" class="edge">
<title>19&#45;&gt;0</title>
<path fill="none" stroke="grey" stroke-width="2" d="M812.91,-143.87C817.51,-119.67 825.96,-75.21 831.44,-46.39"/>
<polygon fill="grey" stroke="grey" stroke-width="2" points="834.95,-46.67 833.38,-36.19 828.08,-45.36 834.95,-46.67"/>
</g>
<!-- 19&#45;&gt;22 -->
<g id="edge44" class="edge">
<title>19&#45;&gt;22</title>
<path fill="none" stroke="grey" stroke-width="2" d="M823.25,-143.7C829.77,-135.39 837.72,-125.28 844.9,-116.14"/>
<polygon fill="grey" stroke="grey" stroke-width="2" points="847.78,-118.13 851.21,-108.1 842.28,-113.81 847.78,-118.13"/>
</g>
<!-- 20 -->
<g id="node21" class="node">
<title>20</title>
<path fill="none" stroke="#56a2d8" stroke-width="2" stroke-dasharray="5,2" d="M686.17,-252C686.17,-252 619.13,-252 619.13,-252 613.13,-252 607.13,-246 607.13,-240 607.13,-240 607.13,-228 607.13,-228 607.13,-222 613.13,-216 619.13,-216 619.13,-216 686.17,-216 686.17,-216 692.17,-216 698.17,-222 698.17,-228 698.17,-228 698.17,-240 698.17,-240 698.17,-246 692.17,-252 686.17,-252"/>
<text text-anchor="middle" x="652.65" y="-231" font-family="sans" font-size="10.00">create_enm_object</text>
</g>
<!-- 20&#45;&gt;19 -->
<g id="edge35" class="edge">
<title>20&#45;&gt;19</title>
<path fill="none" stroke="grey" stroke-width="2" d="M691.06,-215.88C712.52,-206.31 739.45,-194.3 762.22,-184.15"/>
<polygon fill="grey" stroke="grey" stroke-width="2" points="763.66,-187.34 771.37,-180.07 760.81,-180.94 763.66,-187.34"/>
</g>
<!-- 29 -->
<g id="node30" class="node">
<title>29</title>
<path fill="none" stroke="#d85656" stroke-width="2" stroke-dasharray="5,2" d="M525.45,-180C525.45,-180 469.85,-180 469.85,-180 463.85,-180 457.85,-174 457.85,-168 457.85,-168 457.85,-156 457.85,-156 457.85,-150 463.85,-144 469.85,-144 469.85,-144 525.45,-144 525.45,-144 531.45,-144 537.45,-150 537.45,-156 537.45,-156 537.45,-168 537.45,-168 537.45,-174 531.45,-180 525.45,-180"/>
<text text-anchor="middle" x="497.65" y="-165" font-family="sans" font-size="10.00">rewire_network</text>
<text text-anchor="middle" x="497.65" y="-153" font-family="sans" font-size="10.00">N_SIM: 10</text>
</g>
<!-- 20&#45;&gt;29 -->
<g id="edge51" class="edge">
<title>20&#45;&gt;29</title>
<path fill="none" stroke="grey" stroke-width="2" d="M614.73,-215.88C593.64,-206.35 567.19,-194.41 544.78,-184.28"/>
<polygon fill="grey" stroke="grey" stroke-width="2" points="546,-180.99 535.44,-180.07 543.12,-187.37 546,-180.99"/>
</g>
<!-- 20&#45;&gt;30 -->
<g id="edge55" class="edge">
<title>20&#45;&gt;30</title>
<path fill="none" stroke="grey" stroke-width="2" d="M607.09,-228.41C546.16,-221.35 442.68,-205.88 415.65,-180 398.99,-164.05 393.48,-137.86 391.85,-118.01"/>
<polygon fill="grey" stroke="grey" stroke-width="2" points="395.34,-117.81 391.3,-108.01 388.36,-118.19 395.34,-117.81"/>
</g>
<!-- 21 -->
<g id="node22" class="node">
<title>21</title>
<path fill="none" stroke="#c6d856" stroke-width="2" stroke-dasharray="5,2" d="M738,-324C738,-324 667.3,-324 667.3,-324 661.3,-324 655.3,-318 655.3,-312 655.3,-312 655.3,-300 655.3,-300 655.3,-294 661.3,-288 667.3,-288 667.3,-288 738,-288 738,-288 744,-288 750,-294 750,-300 750,-300 750,-312 750,-312 750,-318 744,-324 738,-324"/>
<text text-anchor="middle" x="702.65" y="-309" font-family="sans" font-size="10.00">read_costanzo_data</text>
<text text-anchor="middle" x="702.65" y="-297" font-family="sans" font-size="10.00">thr: 0.4</text>
</g>
<!-- 21&#45;&gt;19 -->
<g id="edge36" class="edge">
<title>21&#45;&gt;19</title>
<path fill="none" stroke="grey" stroke-width="2" d="M715.56,-287.87C734.19,-263.14 768.78,-217.24 790.43,-188.51"/>
<polygon fill="grey" stroke="grey" stroke-width="2" points="793.47,-190.28 796.7,-180.19 787.88,-186.07 793.47,-190.28"/>
</g>
<!-- 21&#45;&gt;20 -->
<g id="edge37" class="edge">
<title>21&#45;&gt;20</title>
<path fill="none" stroke="grey" stroke-width="2" d="M690.29,-287.7C684.42,-279.47 677.28,-269.48 670.81,-260.42"/>
<polygon fill="grey" stroke="grey" stroke-width="2" points="673.53,-258.21 664.87,-252.1 667.83,-262.28 673.53,-258.21"/>
</g>
<!-- 22&#45;&gt;0 -->
<g id="edge8" class="edge">
<title>22&#45;&gt;0</title>
<path fill="none" stroke="grey" stroke-width="2" d="M857.73,-71.7C854.58,-63.81 850.77,-54.3 847.27,-45.55"/>
<polygon fill="grey" stroke="grey" stroke-width="2" points="850.46,-44.09 843.49,-36.1 843.96,-46.69 850.46,-44.09"/>
</g>
<!-- 23&#45;&gt;0 -->
<g id="edge9" class="edge">
<title>23&#45;&gt;0</title>
<path fill="none" stroke="grey" stroke-width="2" d="M1354.84,-76.89C1347.83,-75.05 1340.56,-73.32 1333.65,-72 1163.82,-39.51 957.25,-25.49 874.04,-20.87"/>
<polygon fill="grey" stroke="grey" stroke-width="2" points="873.99,-17.36 863.82,-20.31 873.61,-24.35 873.99,-17.36"/>
</g>
<!-- 24&#45;&gt;0 -->
<g id="edge10" class="edge">
<title>24&#45;&gt;0</title>
<path fill="none" stroke="grey" stroke-width="2" d="M623.84,-143.87C668.25,-117.82 752.67,-68.28 800.76,-40.06"/>
<polygon fill="grey" stroke="grey" stroke-width="2" points="802.73,-42.96 809.59,-34.88 799.19,-36.92 802.73,-42.96"/>
</g>
<!-- 24&#45;&gt;30 -->
<g id="edge56" class="edge">
<title>24&#45;&gt;30</title>
<path fill="none" stroke="grey" stroke-width="2" d="M554.85,-146.87C552.08,-145.89 549.32,-144.93 546.65,-144 506.3,-129.96 459.92,-114.14 428.49,-103.47"/>
<polygon fill="grey" stroke="grey" stroke-width="2" points="429.43,-100.1 418.84,-100.2 427.19,-106.72 429.43,-100.1"/>
</g>
<!-- 25&#45;&gt;0 -->
<g id="edge11" class="edge">
<title>25&#45;&gt;0</title>
<path fill="none" stroke="grey" stroke-width="2" d="M70.65,-143.87C110.04,-123 180.7,-88.49 245.65,-72 449.95,-20.13 705.22,-17.32 799.47,-18.28"/>
<polygon fill="grey" stroke="grey" stroke-width="2" points="799.59,-21.78 809.64,-18.4 799.68,-14.78 799.59,-21.78"/>
</g>
<!-- 25&#45;&gt;30 -->
<g id="edge57" class="edge">
<title>25&#45;&gt;30</title>
<path fill="none" stroke="grey" stroke-width="2" d="M79.59,-147.79C84.31,-146.42 89.07,-145.12 93.65,-144 186.38,-121.26 297.59,-104.1 354.34,-96.06"/>
<polygon fill="grey" stroke="grey" stroke-width="2" points="354.87,-99.52 364.29,-94.66 353.9,-92.58 354.87,-99.52"/>
</g>
<!-- 26&#45;&gt;0 -->
<g id="edge12" class="edge">
<title>26&#45;&gt;0</title>
<path fill="none" stroke="grey" stroke-width="2" d="M1043.97,-77.75C997.06,-64.46 919.6,-42.51 873.82,-29.53"/>
<polygon fill="grey" stroke="grey" stroke-width="2" points="874.58,-26.11 864,-26.75 872.67,-32.85 874.58,-26.11"/>
</g>
<!-- 27&#45;&gt;0 -->
<g id="edge13" class="edge">
<title>27&#45;&gt;0</title>
<path fill="none" stroke="grey" stroke-width="2" d="M293.77,-143.84C304.65,-122.95 326.09,-88.42 355.65,-72 431.74,-29.74 699.76,-21.17 799.17,-19.44"/>
<polygon fill="grey" stroke="grey" stroke-width="2" points="799.41,-22.93 809.35,-19.27 799.3,-15.93 799.41,-22.93"/>
</g>
<!-- 27&#45;&gt;30 -->
<g id="edge58" class="edge">
<title>27&#45;&gt;30</title>
<path fill="none" stroke="grey" stroke-width="2" d="M311.58,-143.88C325.31,-134.81 342.36,-123.55 357.19,-113.76"/>
<polygon fill="grey" stroke="grey" stroke-width="2" points="359.2,-116.62 365.62,-108.19 355.35,-110.78 359.2,-116.62"/>
</g>
<!-- 28&#45;&gt;0 -->
<g id="edge14" class="edge">
<title>28&#45;&gt;0</title>
<path fill="none" stroke="grey" stroke-width="2" d="M1203.86,-77.73C1195.88,-75.67 1187.53,-73.65 1179.65,-72 1069.54,-48.94 937.61,-31.32 874.24,-23.48"/>
<polygon fill="grey" stroke="grey" stroke-width="2" points="874.3,-19.96 863.95,-22.22 873.45,-26.91 874.3,-19.96"/>
</g>
<!-- 29&#45;&gt;0 -->
<g id="edge15" class="edge">
<title>29&#45;&gt;0</title>
<path fill="none" stroke="grey" stroke-width="2" d="M530.4,-143.94C567.17,-125.12 628.85,-94.52 683.65,-72 722.71,-55.95 768.62,-40.48 799.89,-30.44"/>
<polygon fill="grey" stroke="grey" stroke-width="2" points="801.03,-33.75 809.5,-27.38 798.91,-27.08 801.03,-33.75"/>
</g>
<!-- 29&#45;&gt;30 -->
<g id="edge59" class="edge">
<title>29&#45;&gt;30</title>
<path fill="none" stroke="grey" stroke-width="2" d="M471.72,-143.88C457.99,-134.81 440.94,-123.55 426.11,-113.76"/>
<polygon fill="grey" stroke="grey" stroke-width="2" points="427.95,-110.78 417.68,-108.19 424.1,-116.62 427.95,-110.78"/>
</g>
<!-- 30&#45;&gt;0 -->
<g id="edge16" class="edge">
<title>30&#45;&gt;0</title>
<path fill="none" stroke="grey" stroke-width="2" d="M418.82,-84.73C495.25,-72.7 712.24,-38.57 799.57,-24.83"/>
<polygon fill="grey" stroke="grey" stroke-width="2" points="800.22,-28.27 809.56,-23.26 799.13,-21.36 800.22,-28.27"/>
</g>
</g>
</svg>
